<mxfile host="65bd71144e">
    <diagram id="bykZPwmTV7TDKXL7TWVV" name="Overview">
        <mxGraphModel dx="1915" dy="1222" grid="1" gridSize="10" guides="1" tooltips="1" connect="1" arrows="1" fold="1" page="1" pageScale="1" pageWidth="827" pageHeight="1169" math="0" shadow="0">
            <root>
                <mxCell id="0"/>
                <mxCell id="1" parent="0"/>
                <mxCell id="8" value="Openshift" style="rounded=0;whiteSpace=wrap;html=1;" vertex="1" parent="1">
                    <mxGeometry x="300" y="280" width="506" height="380" as="geometry"/>
                </mxCell>
                <mxCell id="7" value="&lt;div style=&quot;&quot;&gt;&lt;span style=&quot;background-color: initial;&quot;&gt;Quay.io&lt;/span&gt;&lt;/div&gt;" style="rounded=0;whiteSpace=wrap;html=1;align=center;" vertex="1" parent="1">
                    <mxGeometry x="300" y="70" width="340" height="150" as="geometry"/>
                </mxCell>
                <mxCell id="9" value="Red Hat ACS (Governance)" style="rounded=0;whiteSpace=wrap;html=1;" vertex="1" parent="1">
                    <mxGeometry x="300" y="710" width="510" height="60" as="geometry"/>
                </mxCell>
                <mxCell id="11" value="project-APP1-test" style="rounded=0;whiteSpace=wrap;html=1;" vertex="1" parent="1">
                    <mxGeometry x="320" y="380" width="150" height="60" as="geometry"/>
                </mxCell>
                <mxCell id="12" value="project-APP1-prod" style="rounded=0;whiteSpace=wrap;html=1;" vertex="1" parent="1">
                    <mxGeometry x="320" y="450" width="150" height="60" as="geometry"/>
                </mxCell>
                <mxCell id="13" value="GIT" style="rounded=0;whiteSpace=wrap;html=1;align=left;" vertex="1" parent="1">
                    <mxGeometry x="10" y="280" width="270" height="380" as="geometry"/>
                </mxCell>
                <mxCell id="14" value="Repo - APP1" style="rounded=0;whiteSpace=wrap;html=1;align=left;" vertex="1" parent="1">
                    <mxGeometry x="60" y="290" width="210" height="170" as="geometry"/>
                </mxCell>
                <mxCell id="15" value="Branch - Upstream" style="rounded=0;whiteSpace=wrap;html=1;" vertex="1" parent="1">
                    <mxGeometry x="140" y="300" width="120" height="40" as="geometry"/>
                </mxCell>
                <mxCell id="16" value="Branch - test" style="rounded=0;whiteSpace=wrap;html=1;" vertex="1" parent="1">
                    <mxGeometry x="140" y="345" width="120" height="45" as="geometry"/>
                </mxCell>
                <mxCell id="17" value="Branch - prod" style="rounded=0;whiteSpace=wrap;html=1;" vertex="1" parent="1">
                    <mxGeometry x="140" y="400" width="120" height="45" as="geometry"/>
                </mxCell>
                <mxCell id="18" value="Repo - Policy" style="rounded=0;whiteSpace=wrap;html=1;align=left;" vertex="1" parent="1">
                    <mxGeometry x="60" y="480" width="210" height="170" as="geometry"/>
                </mxCell>
                <mxCell id="19" value="Branch - Upstream" style="rounded=0;whiteSpace=wrap;html=1;" vertex="1" parent="1">
                    <mxGeometry x="140" y="490" width="120" height="40" as="geometry"/>
                </mxCell>
                <mxCell id="20" value="Branch - test" style="rounded=0;whiteSpace=wrap;html=1;" vertex="1" parent="1">
                    <mxGeometry x="140" y="535" width="120" height="45" as="geometry"/>
                </mxCell>
                <mxCell id="21" value="Branch - prod" style="rounded=0;whiteSpace=wrap;html=1;" vertex="1" parent="1">
                    <mxGeometry x="140" y="590" width="120" height="45" as="geometry"/>
                </mxCell>
                <mxCell id="7GCHhp3ZYvso_WyKdBeI-21" value="&lt;div style=&quot;&quot;&gt;&lt;span style=&quot;background-color: initial;&quot;&gt;Sigstore&lt;/span&gt;&lt;/div&gt;" style="rounded=0;whiteSpace=wrap;html=1;align=center;" vertex="1" parent="1">
                    <mxGeometry x="650" y="70" width="150" height="150" as="geometry"/>
                </mxCell>
                <mxCell id="eH8dp2D6kRJUf3HBchYj-21" value="repo-APP1-TEST" style="rounded=0;whiteSpace=wrap;html=1;" vertex="1" parent="1">
                    <mxGeometry x="320" y="150" width="150" height="60" as="geometry"/>
                </mxCell>
                <mxCell id="eH8dp2D6kRJUf3HBchYj-22" value="repo-APP1-prod" style="rounded=0;whiteSpace=wrap;html=1;" vertex="1" parent="1">
                    <mxGeometry x="478" y="150" width="150" height="60" as="geometry"/>
                </mxCell>
            </root>
        </mxGraphModel>
    </diagram>
    <diagram name="Components Overview" id="MvOpBhTwl4kDiGbs9sfM">
        <mxGraphModel dx="1915" dy="1222" grid="1" gridSize="10" guides="1" tooltips="1" connect="1" arrows="1" fold="1" page="1" pageScale="1" pageWidth="827" pageHeight="1169" math="0" shadow="0">
            <root>
                <mxCell id="OwLjtcAos1v3Z1HTQsKP-0"/>
                <mxCell id="OwLjtcAos1v3Z1HTQsKP-1" parent="OwLjtcAos1v3Z1HTQsKP-0"/>
                <mxCell id="OwLjtcAos1v3Z1HTQsKP-2" value="&lt;br&gt;Openshift" style="rounded=0;whiteSpace=wrap;html=1;" vertex="1" parent="OwLjtcAos1v3Z1HTQsKP-1">
                    <mxGeometry x="300" y="280" width="506" height="380" as="geometry"/>
                </mxCell>
                <mxCell id="OwLjtcAos1v3Z1HTQsKP-3" value="&lt;div style=&quot;&quot;&gt;&lt;span style=&quot;background-color: initial;&quot;&gt;Quay.io&lt;/span&gt;&lt;/div&gt;" style="rounded=0;whiteSpace=wrap;html=1;align=center;" vertex="1" parent="OwLjtcAos1v3Z1HTQsKP-1">
                    <mxGeometry x="300" y="120" width="340" height="100" as="geometry"/>
                </mxCell>
                <mxCell id="OwLjtcAos1v3Z1HTQsKP-4" value="Red Hat Advanced Cluster Security" style="rounded=0;whiteSpace=wrap;html=1;" vertex="1" parent="OwLjtcAos1v3Z1HTQsKP-1">
                    <mxGeometry x="310" y="590" width="480" height="60" as="geometry"/>
                </mxCell>
                <mxCell id="OwLjtcAos1v3Z1HTQsKP-7" value="Github" style="rounded=0;whiteSpace=wrap;html=1;align=center;" vertex="1" parent="OwLjtcAos1v3Z1HTQsKP-1">
                    <mxGeometry x="10" y="280" width="270" height="380" as="geometry"/>
                </mxCell>
                <mxCell id="OwLjtcAos1v3Z1HTQsKP-16" value="&lt;div style=&quot;&quot;&gt;&lt;span style=&quot;background-color: initial;&quot;&gt;Sigstore&lt;/span&gt;&lt;/div&gt;" style="rounded=0;whiteSpace=wrap;html=1;align=center;" vertex="1" parent="OwLjtcAos1v3Z1HTQsKP-1">
                    <mxGeometry x="650" y="120" width="150" height="100" as="geometry"/>
                </mxCell>
                <mxCell id="n6qySvx3wPM_Ko8XhOj--0" value="&lt;div style=&quot;&quot;&gt;&lt;span style=&quot;background-color: initial;&quot;&gt;Tekton&lt;/span&gt;&lt;/div&gt;" style="rounded=0;whiteSpace=wrap;html=1;align=center;" vertex="1" parent="OwLjtcAos1v3Z1HTQsKP-1">
                    <mxGeometry x="310" y="290" width="480" height="55" as="geometry"/>
                </mxCell>
                <mxCell id="n6qySvx3wPM_Ko8XhOj--1" value="&lt;div style=&quot;&quot;&gt;&lt;span style=&quot;background-color: initial;&quot;&gt;Tekton Chains&lt;/span&gt;&lt;/div&gt;" style="rounded=0;whiteSpace=wrap;html=1;align=center;" vertex="1" parent="OwLjtcAos1v3Z1HTQsKP-1">
                    <mxGeometry x="310" y="350" width="480" height="55" as="geometry"/>
                </mxCell>
                <mxCell id="n6qySvx3wPM_Ko8XhOj--2" value="&lt;div style=&quot;&quot;&gt;Openshift GitOps (ArgoCD)&lt;/div&gt;" style="rounded=0;whiteSpace=wrap;html=1;align=center;" vertex="1" parent="OwLjtcAos1v3Z1HTQsKP-1">
                    <mxGeometry x="310" y="410" width="480" height="55" as="geometry"/>
                </mxCell>
            </root>
        </mxGraphModel>
    </diagram>
    <diagram id="Cedur8wUUEsERy26Ivc2" name="Overview-Delivery">
        <mxGraphModel dx="1915" dy="1222" grid="1" gridSize="10" guides="1" tooltips="1" connect="1" arrows="1" fold="1" page="1" pageScale="1" pageWidth="1169" pageHeight="827" math="0" shadow="0">
            <root>
                <mxCell id="0"/>
                <mxCell id="1" parent="0"/>
                <mxCell id="gPmLZG3Zfu5r1ef24nJ_-1" value="Softwareentwicklung Lieferant" style="rounded=0;whiteSpace=wrap;html=1;" vertex="1" parent="1">
                    <mxGeometry x="40" y="300" width="120" height="60" as="geometry"/>
                </mxCell>
                <mxCell id="gPmLZG3Zfu5r1ef24nJ_-2" value="Registry&lt;br&gt;(Customer)" style="rounded=0;whiteSpace=wrap;html=1;" vertex="1" parent="1">
                    <mxGeometry x="730" y="200" width="170" height="60" as="geometry"/>
                </mxCell>
                <mxCell id="gPmLZG3Zfu5r1ef24nJ_-3" value="Version Control&lt;br&gt;(Customer)" style="rounded=0;whiteSpace=wrap;html=1;" vertex="1" parent="1">
                    <mxGeometry x="730" y="400" width="170" height="60" as="geometry"/>
                </mxCell>
                <mxCell id="gPmLZG3Zfu5r1ef24nJ_-4" value="Registry&lt;br&gt;(Supplier)" style="rounded=0;whiteSpace=wrap;html=1;" vertex="1" parent="1">
                    <mxGeometry x="210" y="200" width="150" height="60" as="geometry"/>
                </mxCell>
                <mxCell id="gPmLZG3Zfu5r1ef24nJ_-5" value="Version Control&lt;br&gt;(Supplier)" style="rounded=0;whiteSpace=wrap;html=1;" vertex="1" parent="1">
                    <mxGeometry x="210" y="400" width="150" height="60" as="geometry"/>
                </mxCell>
                <mxCell id="gPmLZG3Zfu5r1ef24nJ_-6" value="" style="endArrow=classic;html=1;" edge="1" parent="1" source="gPmLZG3Zfu5r1ef24nJ_-1" target="gPmLZG3Zfu5r1ef24nJ_-4">
                    <mxGeometry width="50" height="50" relative="1" as="geometry">
                        <mxPoint x="260" y="350" as="sourcePoint"/>
                        <mxPoint x="310" y="300" as="targetPoint"/>
                    </mxGeometry>
                </mxCell>
                <mxCell id="gPmLZG3Zfu5r1ef24nJ_-7" value="" style="endArrow=classic;html=1;" edge="1" parent="1" source="gPmLZG3Zfu5r1ef24nJ_-1" target="gPmLZG3Zfu5r1ef24nJ_-5">
                    <mxGeometry width="50" height="50" relative="1" as="geometry">
                        <mxPoint x="120" y="530" as="sourcePoint"/>
                        <mxPoint x="170" y="480" as="targetPoint"/>
                    </mxGeometry>
                </mxCell>
                <mxCell id="gPmLZG3Zfu5r1ef24nJ_-8" value="Lieferung im Push Verfahren" style="shape=process;whiteSpace=wrap;html=1;backgroundOutline=1;fillColor=#18141D;" vertex="1" parent="1">
                    <mxGeometry x="490" y="200" width="120" height="60" as="geometry"/>
                </mxCell>
                <mxCell id="gPmLZG3Zfu5r1ef24nJ_-9" value="Lieferung im Pull Verfahren" style="shape=process;whiteSpace=wrap;html=1;backgroundOutline=1;fillColor=#18141D;" vertex="1" parent="1">
                    <mxGeometry x="490" y="400" width="120" height="60" as="geometry"/>
                </mxCell>
                <mxCell id="gPmLZG3Zfu5r1ef24nJ_-10" value="" style="endArrow=classic;html=1;entryX=1;entryY=0.5;entryDx=0;entryDy=0;" edge="1" parent="1" source="gPmLZG3Zfu5r1ef24nJ_-3" target="gPmLZG3Zfu5r1ef24nJ_-9">
                    <mxGeometry width="50" height="50" relative="1" as="geometry">
                        <mxPoint x="620" y="510" as="sourcePoint"/>
                        <mxPoint x="670" y="460" as="targetPoint"/>
                    </mxGeometry>
                </mxCell>
                <mxCell id="gPmLZG3Zfu5r1ef24nJ_-11" value="" style="endArrow=classic;html=1;exitX=0;exitY=0.5;exitDx=0;exitDy=0;" edge="1" parent="1" source="gPmLZG3Zfu5r1ef24nJ_-9" target="gPmLZG3Zfu5r1ef24nJ_-5">
                    <mxGeometry width="50" height="50" relative="1" as="geometry">
                        <mxPoint x="465" y="290" as="sourcePoint"/>
                        <mxPoint x="330" y="390" as="targetPoint"/>
                    </mxGeometry>
                </mxCell>
                <mxCell id="gPmLZG3Zfu5r1ef24nJ_-12" value="" style="endArrow=classic;html=1;" edge="1" parent="1" source="gPmLZG3Zfu5r1ef24nJ_-9" target="gPmLZG3Zfu5r1ef24nJ_-4">
                    <mxGeometry width="50" height="50" relative="1" as="geometry">
                        <mxPoint x="485" y="340" as="sourcePoint"/>
                        <mxPoint x="370" y="425" as="targetPoint"/>
                    </mxGeometry>
                </mxCell>
                <mxCell id="gPmLZG3Zfu5r1ef24nJ_-15" value="" style="endArrow=classic;html=1;exitX=0;exitY=1;exitDx=0;exitDy=0;" edge="1" parent="1" source="gPmLZG3Zfu5r1ef24nJ_-2" target="gPmLZG3Zfu5r1ef24nJ_-9">
                    <mxGeometry width="50" height="50" relative="1" as="geometry">
                        <mxPoint x="740" y="240" as="sourcePoint"/>
                        <mxPoint x="620" y="440" as="targetPoint"/>
                    </mxGeometry>
                </mxCell>
                <mxCell id="gPmLZG3Zfu5r1ef24nJ_-16" value="" style="endArrow=classic;html=1;" edge="1" parent="1" source="gPmLZG3Zfu5r1ef24nJ_-4" target="gPmLZG3Zfu5r1ef24nJ_-8">
                    <mxGeometry width="50" height="50" relative="1" as="geometry">
                        <mxPoint x="750" y="250" as="sourcePoint"/>
                        <mxPoint x="630" y="450" as="targetPoint"/>
                    </mxGeometry>
                </mxCell>
                <mxCell id="gPmLZG3Zfu5r1ef24nJ_-17" value="" style="endArrow=classic;html=1;" edge="1" parent="1" source="gPmLZG3Zfu5r1ef24nJ_-5" target="gPmLZG3Zfu5r1ef24nJ_-8">
                    <mxGeometry width="50" height="50" relative="1" as="geometry">
                        <mxPoint x="760" y="260" as="sourcePoint"/>
                        <mxPoint x="640" y="460" as="targetPoint"/>
                    </mxGeometry>
                </mxCell>
                <mxCell id="gPmLZG3Zfu5r1ef24nJ_-18" value="" style="endArrow=classic;html=1;" edge="1" parent="1" source="gPmLZG3Zfu5r1ef24nJ_-8" target="gPmLZG3Zfu5r1ef24nJ_-2">
                    <mxGeometry width="50" height="50" relative="1" as="geometry">
                        <mxPoint x="770" y="270" as="sourcePoint"/>
                        <mxPoint x="650" y="470" as="targetPoint"/>
                    </mxGeometry>
                </mxCell>
                <mxCell id="gPmLZG3Zfu5r1ef24nJ_-19" value="" style="endArrow=classic;html=1;entryX=0;entryY=0;entryDx=0;entryDy=0;" edge="1" parent="1" source="gPmLZG3Zfu5r1ef24nJ_-8" target="gPmLZG3Zfu5r1ef24nJ_-3">
                    <mxGeometry width="50" height="50" relative="1" as="geometry">
                        <mxPoint x="780" y="280" as="sourcePoint"/>
                        <mxPoint x="660" y="480" as="targetPoint"/>
                    </mxGeometry>
                </mxCell>
                <mxCell id="gPmLZG3Zfu5r1ef24nJ_-21" value="&lt;h1&gt;Anlieferung&lt;/h1&gt;&lt;p&gt;Es wird davon ausgegangen, dass die Anlieferung von Anwendungen immer aus allen oder einer Kombination der folgenden Anteilen besteht.&lt;br&gt;1. Konfigurationsdaten, die auch durch den Kunden fuer die jeweilige Umgebung angepasst werden muss (optional) (Version Control oder Registry)&lt;br&gt;2. Quellcode, der die Software und ihre Komponenten beschreibt und zum Bau der Anwendungs-Images dient (optional) (Version Control)&lt;br&gt;&lt;span style=&quot;background-color: initial;&quot;&gt;3. Anwendungs-Images, die die kompilierte Software enthalten (optional) (Registry)&lt;/span&gt;&lt;/p&gt;&lt;p&gt;&lt;br&gt;&lt;br&gt;Grundsaetzlich kann in zwei Verfahren angeliefert werden. Entweder stellt der Lieferant (Supplier) die Artefakte zum Download bereit, oder der Lieferant liefert die Artefakte an den Kunden (Customer). Dies kann Online oder Offline passieren. Um eine einheitlichen Ablauf zu garantieren wird hier gegen Shift Left verstossen und alle Pruefungen gegen die beim Kunden vorhandenen Artefakte durchgefuehrt. Shift Left wuerde eigentlich erfordern, dass man vor Upload in die eigenen Systeme die notwendigen Checks durchfuehrt. Dies kann eigentlich nur im Pull-Verfahren garantiert werden&lt;/p&gt;" style="text;html=1;strokeColor=none;fillColor=none;spacing=5;spacingTop=-20;whiteSpace=wrap;overflow=hidden;rounded=0;" vertex="1" parent="1">
                    <mxGeometry x="40" y="490" width="1080" height="220" as="geometry"/>
                </mxCell>
                <mxCell id="QiAMjn3QqwH8F6UN_Vpr-1" value="" style="endArrow=none;dashed=1;html=1;dashPattern=1 3;strokeWidth=2;" edge="1" parent="1">
                    <mxGeometry width="50" height="50" relative="1" as="geometry">
                        <mxPoint x="780" y="470" as="sourcePoint"/>
                        <mxPoint x="780" y="100" as="targetPoint"/>
                    </mxGeometry>
                </mxCell>
                <mxCell id="QiAMjn3QqwH8F6UN_Vpr-2" value="" style="endArrow=none;dashed=1;html=1;dashPattern=1 3;strokeWidth=2;" edge="1" parent="1">
                    <mxGeometry width="50" height="50" relative="1" as="geometry">
                        <mxPoint x="840" y="470" as="sourcePoint"/>
                        <mxPoint x="840" y="100" as="targetPoint"/>
                    </mxGeometry>
                </mxCell>
                <mxCell id="QiAMjn3QqwH8F6UN_Vpr-3" value="" style="endArrow=none;dashed=1;html=1;dashPattern=1 3;strokeWidth=2;" edge="1" parent="1">
                    <mxGeometry width="50" height="50" relative="1" as="geometry">
                        <mxPoint x="900" y="470" as="sourcePoint"/>
                        <mxPoint x="900" y="100" as="targetPoint"/>
                    </mxGeometry>
                </mxCell>
                <mxCell id="QiAMjn3QqwH8F6UN_Vpr-4" value="upstream" style="text;html=1;strokeColor=none;fillColor=none;align=center;verticalAlign=middle;whiteSpace=wrap;rounded=0;" vertex="1" parent="1">
                    <mxGeometry x="720" y="100" width="60" height="30" as="geometry"/>
                </mxCell>
                <mxCell id="QiAMjn3QqwH8F6UN_Vpr-5" value="test" style="text;html=1;strokeColor=none;fillColor=none;align=center;verticalAlign=middle;whiteSpace=wrap;rounded=0;" vertex="1" parent="1">
                    <mxGeometry x="780" y="100" width="60" height="30" as="geometry"/>
                </mxCell>
                <mxCell id="QiAMjn3QqwH8F6UN_Vpr-6" value="prod" style="text;html=1;strokeColor=none;fillColor=none;align=center;verticalAlign=middle;whiteSpace=wrap;rounded=0;" vertex="1" parent="1">
                    <mxGeometry x="840" y="100" width="60" height="30" as="geometry"/>
                </mxCell>
                <mxCell id="QiAMjn3QqwH8F6UN_Vpr-7" value="" style="endArrow=none;dashed=1;html=1;dashPattern=1 3;strokeWidth=2;exitX=0.5;exitY=0;exitDx=0;exitDy=0;" edge="1" parent="1" source="gPmLZG3Zfu5r1ef24nJ_-8">
                    <mxGeometry width="50" height="50" relative="1" as="geometry">
                        <mxPoint x="520" y="160" as="sourcePoint"/>
                        <mxPoint x="550" y="90" as="targetPoint"/>
                    </mxGeometry>
                </mxCell>
                <mxCell id="QiAMjn3QqwH8F6UN_Vpr-10" value="Lieferant:&lt;br&gt;&lt;ul&gt;&lt;li style=&quot;text-align: left;&quot;&gt;Upload Image in Kundenregistry&lt;/li&gt;&lt;li style=&quot;text-align: left;&quot;&gt;Upload Quellcode in Kundenversionskontrolle&lt;/li&gt;&lt;li style=&quot;text-align: left;&quot;&gt;Upload Konfigurationsdaten in Kundenversionskontrolle&lt;/li&gt;&lt;/ul&gt;" style="text;html=1;strokeColor=none;fillColor=none;align=center;verticalAlign=middle;whiteSpace=wrap;rounded=0;" vertex="1" parent="1">
                    <mxGeometry x="355" y="40" width="390" height="30" as="geometry"/>
                </mxCell>
            </root>
        </mxGraphModel>
    </diagram>
    <diagram id="7yRsUrbVqnifvTdhcY4k" name="BSI-Supply-Chain">
        <mxGraphModel dx="1915" dy="1222" grid="1" gridSize="10" guides="1" tooltips="1" connect="1" arrows="1" fold="1" page="1" pageScale="1" pageWidth="827" pageHeight="1169" math="0" shadow="0">
            <root>
                <mxCell id="0"/>
                <mxCell id="1" parent="0"/>
                <mxCell id="BPSWElxodaoagcefrMZW-8" style="edgeStyle=none;html=1;" edge="1" parent="1" source="BPSWElxodaoagcefrMZW-1" target="BPSWElxodaoagcefrMZW-7">
                    <mxGeometry relative="1" as="geometry"/>
                </mxCell>
                <mxCell id="BPSWElxodaoagcefrMZW-1" value="Delivery" style="shape=process;whiteSpace=wrap;html=1;backgroundOutline=1;strokeColor=#F0F0F0;fillColor=#18141D;" vertex="1" parent="1">
                    <mxGeometry x="50" y="250" width="120" height="60" as="geometry"/>
                </mxCell>
                <mxCell id="BPSWElxodaoagcefrMZW-19" style="edgeStyle=none;html=1;" edge="1" parent="1" source="BPSWElxodaoagcefrMZW-2" target="BPSWElxodaoagcefrMZW-22">
                    <mxGeometry relative="1" as="geometry"/>
                </mxCell>
                <mxCell id="BPSWElxodaoagcefrMZW-2" value="Check Image" style="shape=process;whiteSpace=wrap;html=1;backgroundOutline=1;strokeColor=#F0F0F0;fillColor=#18141D;" vertex="1" parent="1">
                    <mxGeometry x="430" y="325" width="120" height="60" as="geometry"/>
                </mxCell>
                <mxCell id="BPSWElxodaoagcefrMZW-20" style="edgeStyle=none;html=1;" edge="1" parent="1" source="BPSWElxodaoagcefrMZW-4" target="BPSWElxodaoagcefrMZW-22">
                    <mxGeometry relative="1" as="geometry"/>
                </mxCell>
                <mxCell id="BPSWElxodaoagcefrMZW-4" value="Check Manifest" style="shape=process;whiteSpace=wrap;html=1;backgroundOutline=1;strokeColor=#F0F0F0;fillColor=#18141D;" vertex="1" parent="1">
                    <mxGeometry x="430" y="400" width="120" height="60" as="geometry"/>
                </mxCell>
                <mxCell id="BPSWElxodaoagcefrMZW-9" style="edgeStyle=none;html=1;" edge="1" parent="1" source="BPSWElxodaoagcefrMZW-6" target="BPSWElxodaoagcefrMZW-7">
                    <mxGeometry relative="1" as="geometry"/>
                </mxCell>
                <mxCell id="BPSWElxodaoagcefrMZW-6" value="Development" style="shape=process;whiteSpace=wrap;html=1;backgroundOutline=1;strokeColor=#F0F0F0;fillColor=#18141D;" vertex="1" parent="1">
                    <mxGeometry x="50" y="490" width="120" height="60" as="geometry"/>
                </mxCell>
                <mxCell id="BPSWElxodaoagcefrMZW-16" style="edgeStyle=none;html=1;entryX=0;entryY=0.5;entryDx=0;entryDy=0;" edge="1" parent="1" source="BPSWElxodaoagcefrMZW-7" target="BPSWElxodaoagcefrMZW-24">
                    <mxGeometry relative="1" as="geometry"/>
                </mxCell>
                <mxCell id="BPSWElxodaoagcefrMZW-17" style="edgeStyle=none;html=1;" edge="1" parent="1" source="BPSWElxodaoagcefrMZW-7" target="BPSWElxodaoagcefrMZW-4">
                    <mxGeometry relative="1" as="geometry"/>
                </mxCell>
                <mxCell id="BPSWElxodaoagcefrMZW-26" style="edgeStyle=none;html=1;" edge="1" parent="1" source="BPSWElxodaoagcefrMZW-7" target="BPSWElxodaoagcefrMZW-2">
                    <mxGeometry relative="1" as="geometry"/>
                </mxCell>
                <mxCell id="BPSWElxodaoagcefrMZW-7" value="Test Repos" style="shape=cylinder3;whiteSpace=wrap;html=1;boundedLbl=1;backgroundOutline=1;size=15;strokeColor=#F0F0F0;fillColor=#18141D;" vertex="1" parent="1">
                    <mxGeometry x="180" y="350" width="60" height="80" as="geometry"/>
                </mxCell>
                <mxCell id="BPSWElxodaoagcefrMZW-15" value="Prod Repos" style="shape=cylinder3;whiteSpace=wrap;html=1;boundedLbl=1;backgroundOutline=1;size=15;strokeColor=#F0F0F0;fillColor=#18141D;" vertex="1" parent="1">
                    <mxGeometry x="750" y="350" width="60" height="80" as="geometry"/>
                </mxCell>
                <mxCell id="BPSWElxodaoagcefrMZW-21" style="edgeStyle=none;html=1;startArrow=none;" edge="1" parent="1" source="BPSWElxodaoagcefrMZW-22" target="BPSWElxodaoagcefrMZW-15">
                    <mxGeometry relative="1" as="geometry"/>
                </mxCell>
                <mxCell id="BPSWElxodaoagcefrMZW-27" style="edgeStyle=none;html=1;" edge="1" parent="1" source="BPSWElxodaoagcefrMZW-18" target="BPSWElxodaoagcefrMZW-22">
                    <mxGeometry relative="1" as="geometry"/>
                </mxCell>
                <mxCell id="BPSWElxodaoagcefrMZW-18" value="Test Software" style="shape=process;whiteSpace=wrap;html=1;backgroundOutline=1;strokeColor=#F0F0F0;fillColor=#18141D;" vertex="1" parent="1">
                    <mxGeometry x="430" y="240" width="120" height="60" as="geometry"/>
                </mxCell>
                <mxCell id="BPSWElxodaoagcefrMZW-22" value="Publish Artifacts" style="shape=process;whiteSpace=wrap;html=1;backgroundOutline=1;strokeColor=#F0F0F0;fillColor=#18141D;" vertex="1" parent="1">
                    <mxGeometry x="610" y="360" width="120" height="60" as="geometry"/>
                </mxCell>
                <mxCell id="BPSWElxodaoagcefrMZW-25" style="edgeStyle=none;html=1;" edge="1" parent="1" source="BPSWElxodaoagcefrMZW-24" target="BPSWElxodaoagcefrMZW-18">
                    <mxGeometry relative="1" as="geometry">
                        <mxPoint x="300" y="360" as="targetPoint"/>
                    </mxGeometry>
                </mxCell>
                <mxCell id="pr_Y1PxhkBMtIKp8Mbv2-1" style="edgeStyle=none;html=1;fontFamily=Helvetica;fontSize=12;" edge="1" parent="1" source="BPSWElxodaoagcefrMZW-24" target="BPSWElxodaoagcefrMZW-2">
                    <mxGeometry relative="1" as="geometry"/>
                </mxCell>
                <mxCell id="BPSWElxodaoagcefrMZW-24" value="Build" style="shape=process;whiteSpace=wrap;html=1;backgroundOutline=1;strokeColor=#F0F0F0;fillColor=#18141D;" vertex="1" parent="1">
                    <mxGeometry x="260" y="240" width="120" height="60" as="geometry"/>
                </mxCell>
                <mxCell id="BPSWElxodaoagcefrMZW-28" value="" style="sketch=0;html=1;aspect=fixed;strokeColor=none;shadow=0;align=center;verticalAlign=top;fillColor=#2D9C5E;shape=mxgraph.gcp2.check" vertex="1" parent="1">
                    <mxGeometry x="530" y="360" width="31.25" height="25" as="geometry"/>
                </mxCell>
                <mxCell id="BPSWElxodaoagcefrMZW-29" value="" style="sketch=0;html=1;aspect=fixed;strokeColor=none;shadow=0;align=center;verticalAlign=top;fillColor=#2D9C5E;shape=mxgraph.gcp2.check" vertex="1" parent="1">
                    <mxGeometry x="530" y="435" width="31.25" height="25" as="geometry"/>
                </mxCell>
                <mxCell id="BPSWElxodaoagcefrMZW-31" value="" style="sketch=0;html=1;aspect=fixed;strokeColor=none;shadow=0;align=center;verticalAlign=top;fillColor=#2D9C5E;shape=mxgraph.gcp2.check" vertex="1" parent="1">
                    <mxGeometry x="148.75" y="240" width="31.25" height="25" as="geometry"/>
                </mxCell>
                <mxCell id="BPSWElxodaoagcefrMZW-32" value="" style="verticalLabelPosition=bottom;verticalAlign=top;html=1;shape=mxgraph.basic.x;strokeColor=#F0F0F0;fillColor=#18141D;" vertex="1" parent="1">
                    <mxGeometry x="531.25" y="220" width="30" height="30" as="geometry"/>
                </mxCell>
                <mxCell id="BaxftDvJS9iqBxwXJ0y4-2" style="edgeStyle=none;html=1;" edge="1" parent="1" source="BaxftDvJS9iqBxwXJ0y4-1" target="BPSWElxodaoagcefrMZW-1">
                    <mxGeometry relative="1" as="geometry"/>
                </mxCell>
                <mxCell id="BaxftDvJS9iqBxwXJ0y4-1" value="Supplier Repo" style="shape=cylinder3;whiteSpace=wrap;html=1;boundedLbl=1;backgroundOutline=1;size=15;strokeColor=#F0F0F0;fillColor=#18141D;" vertex="1" parent="1">
                    <mxGeometry y="140" width="60" height="80" as="geometry"/>
                </mxCell>
                <mxCell id="BaxftDvJS9iqBxwXJ0y4-4" style="edgeStyle=none;html=1;" edge="1" parent="1" source="BaxftDvJS9iqBxwXJ0y4-3" target="BPSWElxodaoagcefrMZW-6">
                    <mxGeometry relative="1" as="geometry"/>
                </mxCell>
                <mxCell id="BaxftDvJS9iqBxwXJ0y4-3" value="Supplier Repo" style="shape=cylinder3;whiteSpace=wrap;html=1;boundedLbl=1;backgroundOutline=1;size=15;strokeColor=#F0F0F0;fillColor=#18141D;" vertex="1" parent="1">
                    <mxGeometry x="20" y="640" width="60" height="80" as="geometry"/>
                </mxCell>
                <mxCell id="BaxftDvJS9iqBxwXJ0y4-7" style="edgeStyle=none;html=1;" edge="1" parent="1" source="BaxftDvJS9iqBxwXJ0y4-5" target="BPSWElxodaoagcefrMZW-6">
                    <mxGeometry relative="1" as="geometry"/>
                </mxCell>
                <mxCell id="BaxftDvJS9iqBxwXJ0y4-5" value="Supplier Repo" style="shape=cylinder3;whiteSpace=wrap;html=1;boundedLbl=1;backgroundOutline=1;size=15;strokeColor=#F0F0F0;fillColor=#18141D;" vertex="1" parent="1">
                    <mxGeometry x="88.75" y="640" width="60" height="80" as="geometry"/>
                </mxCell>
                <mxCell id="BaxftDvJS9iqBxwXJ0y4-8" style="edgeStyle=none;html=1;" edge="1" parent="1" source="BaxftDvJS9iqBxwXJ0y4-6" target="BPSWElxodaoagcefrMZW-6">
                    <mxGeometry relative="1" as="geometry"/>
                </mxCell>
                <mxCell id="BaxftDvJS9iqBxwXJ0y4-6" value="Supplier Repo" style="shape=cylinder3;whiteSpace=wrap;html=1;boundedLbl=1;backgroundOutline=1;size=15;strokeColor=#F0F0F0;fillColor=#18141D;" vertex="1" parent="1">
                    <mxGeometry x="160" y="640" width="60" height="80" as="geometry"/>
                </mxCell>
                <mxCell id="BaxftDvJS9iqBxwXJ0y4-9" value="" style="shape=flexArrow;endArrow=classic;html=1;" edge="1" parent="1">
                    <mxGeometry width="50" height="50" relative="1" as="geometry">
                        <mxPoint x="123.75" y="150" as="sourcePoint"/>
                        <mxPoint x="80" y="230" as="targetPoint"/>
                    </mxGeometry>
                </mxCell>
                <mxCell id="BaxftDvJS9iqBxwXJ0y4-10" value="Vertrauensuerdige Quellen (&lt;span style=&quot;background-color: rgb(30, 30, 30); color: rgb(212, 212, 212); font-family: Menlo, Monaco, &amp;quot;Courier New&amp;quot;, monospace;&quot;&gt;SYS.1.6.A6)&lt;/span&gt;" style="text;html=1;strokeColor=none;fillColor=none;align=center;verticalAlign=middle;whiteSpace=wrap;rounded=0;" vertex="1" parent="1">
                    <mxGeometry x="100" y="110" width="150" height="30" as="geometry"/>
                </mxCell>
                <mxCell id="BaxftDvJS9iqBxwXJ0y4-11" value="Vertrauensuerdige Quellen (&lt;span style=&quot;background-color: rgb(30, 30, 30); color: rgb(212, 212, 212); font-family: Menlo, Monaco, &amp;quot;Courier New&amp;quot;, monospace;&quot;&gt;SYS.1.6.A6)&lt;/span&gt;" style="text;html=1;strokeColor=none;fillColor=none;align=center;verticalAlign=middle;whiteSpace=wrap;rounded=0;" vertex="1" parent="1">
                    <mxGeometry x="230" y="585" width="150" height="30" as="geometry"/>
                </mxCell>
                <mxCell id="BaxftDvJS9iqBxwXJ0y4-12" value="" style="shape=flexArrow;endArrow=classic;html=1;" edge="1" parent="1">
                    <mxGeometry width="50" height="50" relative="1" as="geometry">
                        <mxPoint x="220" y="600" as="sourcePoint"/>
                        <mxPoint x="170" y="600" as="targetPoint"/>
                    </mxGeometry>
                </mxCell>
            </root>
        </mxGraphModel>
    </diagram>
    <diagram id="9XWBpEy1meR_qe4aS7Hj" name="InternalProcessView">
        <mxGraphModel dx="1915" dy="1222" grid="1" gridSize="10" guides="1" tooltips="1" connect="1" arrows="1" fold="1" page="1" pageScale="1" pageWidth="827" pageHeight="1169" math="0" shadow="0">
            <root>
                <mxCell id="0"/>
                <mxCell id="1" parent="0"/>
                <mxCell id="VQ9wwbrkHAM26FKO0fQ6-1" style="edgeStyle=none;html=1;entryX=0;entryY=0.5;entryDx=0;entryDy=0;" edge="1" parent="1" source="VQ9wwbrkHAM26FKO0fQ6-14" target="VQ9wwbrkHAM26FKO0fQ6-40">
                    <mxGeometry relative="1" as="geometry"/>
                </mxCell>
                <mxCell id="VQ9wwbrkHAM26FKO0fQ6-2" style="edgeStyle=none;html=1;entryX=0;entryY=0.5;entryDx=0;entryDy=0;" edge="1" parent="1" source="VQ9wwbrkHAM26FKO0fQ6-14" target="VQ9wwbrkHAM26FKO0fQ6-38">
                    <mxGeometry relative="1" as="geometry"/>
                </mxCell>
                <mxCell id="VQ9wwbrkHAM26FKO0fQ6-3" style="edgeStyle=none;html=1;entryX=0;entryY=0.5;entryDx=0;entryDy=0;" edge="1" parent="1" source="VQ9wwbrkHAM26FKO0fQ6-14" target="VQ9wwbrkHAM26FKO0fQ6-36">
                    <mxGeometry relative="1" as="geometry"/>
                </mxCell>
                <mxCell id="VQ9wwbrkHAM26FKO0fQ6-4" style="edgeStyle=none;html=1;entryX=0;entryY=0.5;entryDx=0;entryDy=0;" edge="1" parent="1" source="VQ9wwbrkHAM26FKO0fQ6-14" target="VQ9wwbrkHAM26FKO0fQ6-34">
                    <mxGeometry relative="1" as="geometry"/>
                </mxCell>
                <mxCell id="VQ9wwbrkHAM26FKO0fQ6-5" style="edgeStyle=none;html=1;entryX=0;entryY=0.5;entryDx=0;entryDy=0;" edge="1" parent="1" source="VQ9wwbrkHAM26FKO0fQ6-14" target="VQ9wwbrkHAM26FKO0fQ6-16">
                    <mxGeometry relative="1" as="geometry"/>
                </mxCell>
                <mxCell id="VQ9wwbrkHAM26FKO0fQ6-6" style="edgeStyle=none;html=1;entryX=0;entryY=0.5;entryDx=0;entryDy=0;" edge="1" parent="1" source="VQ9wwbrkHAM26FKO0fQ6-14" target="VQ9wwbrkHAM26FKO0fQ6-18">
                    <mxGeometry relative="1" as="geometry"/>
                </mxCell>
                <mxCell id="VQ9wwbrkHAM26FKO0fQ6-7" style="edgeStyle=none;html=1;entryX=0;entryY=0.5;entryDx=0;entryDy=0;" edge="1" parent="1" source="VQ9wwbrkHAM26FKO0fQ6-14" target="VQ9wwbrkHAM26FKO0fQ6-20">
                    <mxGeometry relative="1" as="geometry"/>
                </mxCell>
                <mxCell id="VQ9wwbrkHAM26FKO0fQ6-8" style="edgeStyle=none;html=1;entryX=0;entryY=0.5;entryDx=0;entryDy=0;" edge="1" parent="1" source="VQ9wwbrkHAM26FKO0fQ6-14" target="VQ9wwbrkHAM26FKO0fQ6-22">
                    <mxGeometry relative="1" as="geometry"/>
                </mxCell>
                <mxCell id="VQ9wwbrkHAM26FKO0fQ6-9" style="edgeStyle=none;html=1;entryX=0;entryY=0.5;entryDx=0;entryDy=0;" edge="1" parent="1" source="VQ9wwbrkHAM26FKO0fQ6-14" target="VQ9wwbrkHAM26FKO0fQ6-24">
                    <mxGeometry relative="1" as="geometry"/>
                </mxCell>
                <mxCell id="VQ9wwbrkHAM26FKO0fQ6-10" style="edgeStyle=none;html=1;entryX=0;entryY=0.5;entryDx=0;entryDy=0;" edge="1" parent="1" source="VQ9wwbrkHAM26FKO0fQ6-14" target="VQ9wwbrkHAM26FKO0fQ6-26">
                    <mxGeometry relative="1" as="geometry"/>
                </mxCell>
                <mxCell id="VQ9wwbrkHAM26FKO0fQ6-11" style="edgeStyle=none;html=1;entryX=0;entryY=0.5;entryDx=0;entryDy=0;" edge="1" parent="1" source="VQ9wwbrkHAM26FKO0fQ6-14" target="VQ9wwbrkHAM26FKO0fQ6-28">
                    <mxGeometry relative="1" as="geometry"/>
                </mxCell>
                <mxCell id="VQ9wwbrkHAM26FKO0fQ6-12" style="edgeStyle=none;html=1;entryX=0;entryY=0.5;entryDx=0;entryDy=0;" edge="1" parent="1" source="VQ9wwbrkHAM26FKO0fQ6-14" target="VQ9wwbrkHAM26FKO0fQ6-30">
                    <mxGeometry relative="1" as="geometry"/>
                </mxCell>
                <mxCell id="VQ9wwbrkHAM26FKO0fQ6-13" style="edgeStyle=none;html=1;entryX=0;entryY=0.5;entryDx=0;entryDy=0;" edge="1" parent="1" source="VQ9wwbrkHAM26FKO0fQ6-14" target="VQ9wwbrkHAM26FKO0fQ6-32">
                    <mxGeometry relative="1" as="geometry"/>
                </mxCell>
                <mxCell id="VQ9wwbrkHAM26FKO0fQ6-14" value="START" style="strokeWidth=2;html=1;shape=mxgraph.flowchart.start_2;whiteSpace=wrap;fontFamily=Helvetica;fontSize=12;fontColor=default;align=center;strokeColor=#F0F0F0;fillColor=#18141D;" vertex="1" parent="1">
                    <mxGeometry x="90" y="450" width="100" height="100" as="geometry"/>
                </mxCell>
                <mxCell id="VQ9wwbrkHAM26FKO0fQ6-15" style="edgeStyle=none;html=1;exitX=1;exitY=0.5;exitDx=0;exitDy=0;" edge="1" parent="1" source="VQ9wwbrkHAM26FKO0fQ6-16" target="VQ9wwbrkHAM26FKO0fQ6-41">
                    <mxGeometry relative="1" as="geometry"/>
                </mxCell>
                <mxCell id="VQ9wwbrkHAM26FKO0fQ6-16" value="Check for Health-Check&lt;br&gt;(SYS.1.6.A3)" style="rounded=0;whiteSpace=wrap;html=1;strokeColor=#F0F0F0;fillColor=#18141D;" vertex="1" parent="1">
                    <mxGeometry x="400" y="30" width="120" height="60" as="geometry"/>
                </mxCell>
                <mxCell id="VQ9wwbrkHAM26FKO0fQ6-17" style="edgeStyle=none;html=1;exitX=1;exitY=0.5;exitDx=0;exitDy=0;" edge="1" parent="1" source="VQ9wwbrkHAM26FKO0fQ6-18" target="VQ9wwbrkHAM26FKO0fQ6-41">
                    <mxGeometry relative="1" as="geometry"/>
                </mxCell>
                <mxCell id="VQ9wwbrkHAM26FKO0fQ6-18" value="Check Network Policies&lt;br&gt;(SYS.1.6.A5,&lt;br&gt;APP.4.4.A4,&lt;br&gt;APP.4.4.A7,&lt;br&gt;APP.4.4.A18)" style="rounded=0;whiteSpace=wrap;html=1;strokeColor=#F0F0F0;fillColor=#18141D;" vertex="1" parent="1">
                    <mxGeometry x="400" y="100" width="120" height="90" as="geometry"/>
                </mxCell>
                <mxCell id="VQ9wwbrkHAM26FKO0fQ6-19" style="edgeStyle=none;html=1;exitX=1;exitY=0.5;exitDx=0;exitDy=0;" edge="1" parent="1" source="VQ9wwbrkHAM26FKO0fQ6-20" target="VQ9wwbrkHAM26FKO0fQ6-41">
                    <mxGeometry relative="1" as="geometry"/>
                </mxCell>
                <mxCell id="VQ9wwbrkHAM26FKO0fQ6-20" value="Check for SECRETS&lt;br&gt;(SYS.1.6.A8)" style="rounded=0;whiteSpace=wrap;html=1;strokeColor=#F0F0F0;fillColor=#18141D;" vertex="1" parent="1">
                    <mxGeometry x="400" y="200" width="120" height="60" as="geometry"/>
                </mxCell>
                <mxCell id="VQ9wwbrkHAM26FKO0fQ6-21" style="edgeStyle=none;html=1;exitX=1;exitY=0.5;exitDx=0;exitDy=0;" edge="1" parent="1" source="VQ9wwbrkHAM26FKO0fQ6-22" target="VQ9wwbrkHAM26FKO0fQ6-41">
                    <mxGeometry relative="1" as="geometry"/>
                </mxCell>
                <mxCell id="VQ9wwbrkHAM26FKO0fQ6-22" value="Check for Limits/Requests&lt;br&gt;(SYS.1.6.A15)" style="rounded=0;whiteSpace=wrap;html=1;strokeColor=#F0F0F0;fillColor=#18141D;" vertex="1" parent="1">
                    <mxGeometry x="400" y="270" width="120" height="60" as="geometry"/>
                </mxCell>
                <mxCell id="VQ9wwbrkHAM26FKO0fQ6-23" style="edgeStyle=none;html=1;exitX=1;exitY=0.5;exitDx=0;exitDy=0;" edge="1" parent="1" source="VQ9wwbrkHAM26FKO0fQ6-24" target="VQ9wwbrkHAM26FKO0fQ6-41">
                    <mxGeometry relative="1" as="geometry"/>
                </mxCell>
                <mxCell id="VQ9wwbrkHAM26FKO0fQ6-24" value="Check for forbidden Ports&lt;br&gt;(SYS.1.6.A16)" style="rounded=0;whiteSpace=wrap;html=1;strokeColor=#F0F0F0;fillColor=#18141D;" vertex="1" parent="1">
                    <mxGeometry x="400" y="340" width="120" height="60" as="geometry"/>
                </mxCell>
                <mxCell id="VQ9wwbrkHAM26FKO0fQ6-25" style="edgeStyle=none;html=1;exitX=1;exitY=0.5;exitDx=0;exitDy=0;" edge="1" parent="1" source="VQ9wwbrkHAM26FKO0fQ6-26" target="VQ9wwbrkHAM26FKO0fQ6-41">
                    <mxGeometry relative="1" as="geometry"/>
                </mxCell>
                <mxCell id="VQ9wwbrkHAM26FKO0fQ6-26" value="Check Capabilities and SCC&lt;br&gt;(SYS.1.6.A17, APP.4.4.A4)" style="rounded=0;whiteSpace=wrap;html=1;strokeColor=#F0F0F0;fillColor=#18141D;" vertex="1" parent="1">
                    <mxGeometry x="400" y="410" width="120" height="60" as="geometry"/>
                </mxCell>
                <mxCell id="VQ9wwbrkHAM26FKO0fQ6-27" style="edgeStyle=none;html=1;exitX=1;exitY=0.5;exitDx=0;exitDy=0;" edge="1" parent="1" source="VQ9wwbrkHAM26FKO0fQ6-28" target="VQ9wwbrkHAM26FKO0fQ6-41">
                    <mxGeometry relative="1" as="geometry"/>
                </mxCell>
                <mxCell id="VQ9wwbrkHAM26FKO0fQ6-28" value="Check Usage of Local Storage&lt;br&gt;(SYS.1.6.A19)" style="rounded=0;whiteSpace=wrap;html=1;strokeColor=#F0F0F0;fillColor=#18141D;" vertex="1" parent="1">
                    <mxGeometry x="400" y="480" width="120" height="60" as="geometry"/>
                </mxCell>
                <mxCell id="VQ9wwbrkHAM26FKO0fQ6-29" style="edgeStyle=none;html=1;exitX=1;exitY=0.5;exitDx=0;exitDy=0;" edge="1" parent="1" source="VQ9wwbrkHAM26FKO0fQ6-30" target="VQ9wwbrkHAM26FKO0fQ6-41">
                    <mxGeometry relative="1" as="geometry"/>
                </mxCell>
                <mxCell id="VQ9wwbrkHAM26FKO0fQ6-30" value="Check ReadOnly File System&lt;br&gt;(SYS.1.6.A23)" style="rounded=0;whiteSpace=wrap;html=1;strokeColor=#F0F0F0;fillColor=#18141D;" vertex="1" parent="1">
                    <mxGeometry x="400" y="550" width="120" height="60" as="geometry"/>
                </mxCell>
                <mxCell id="VQ9wwbrkHAM26FKO0fQ6-31" style="edgeStyle=none;html=1;exitX=1;exitY=0.5;exitDx=0;exitDy=0;" edge="1" parent="1" source="VQ9wwbrkHAM26FKO0fQ6-32" target="VQ9wwbrkHAM26FKO0fQ6-41">
                    <mxGeometry relative="1" as="geometry"/>
                </mxCell>
                <mxCell id="VQ9wwbrkHAM26FKO0fQ6-32" value="Check for Affinity/Anti-Affinity&lt;br&gt;(SYS.1.6.A25)" style="rounded=0;whiteSpace=wrap;html=1;strokeColor=#F0F0F0;fillColor=#18141D;" vertex="1" parent="1">
                    <mxGeometry x="400" y="620" width="120" height="60" as="geometry"/>
                </mxCell>
                <mxCell id="VQ9wwbrkHAM26FKO0fQ6-33" style="edgeStyle=none;html=1;exitX=1;exitY=0.5;exitDx=0;exitDy=0;" edge="1" parent="1" source="VQ9wwbrkHAM26FKO0fQ6-34" target="VQ9wwbrkHAM26FKO0fQ6-41">
                    <mxGeometry relative="1" as="geometry"/>
                </mxCell>
                <mxCell id="VQ9wwbrkHAM26FKO0fQ6-34" value="Check for Node-Labels&lt;br&gt;(SYS.1.6.A26)" style="rounded=0;whiteSpace=wrap;html=1;strokeColor=#F0F0F0;fillColor=#18141D;" vertex="1" parent="1">
                    <mxGeometry x="400" y="690" width="120" height="60" as="geometry"/>
                </mxCell>
                <mxCell id="VQ9wwbrkHAM26FKO0fQ6-35" style="edgeStyle=none;html=1;exitX=1;exitY=0.5;exitDx=0;exitDy=0;" edge="1" parent="1" source="VQ9wwbrkHAM26FKO0fQ6-36" target="VQ9wwbrkHAM26FKO0fQ6-41">
                    <mxGeometry relative="1" as="geometry"/>
                </mxCell>
                <mxCell id="VQ9wwbrkHAM26FKO0fQ6-36" value="Check Reason for ServiceAccount&lt;br&gt;(APP.4.4.A9)" style="rounded=0;whiteSpace=wrap;html=1;strokeColor=#F0F0F0;fillColor=#18141D;" vertex="1" parent="1">
                    <mxGeometry x="400" y="760" width="120" height="60" as="geometry"/>
                </mxCell>
                <mxCell id="VQ9wwbrkHAM26FKO0fQ6-37" style="edgeStyle=none;html=1;exitX=1;exitY=0.5;exitDx=0;exitDy=0;" edge="1" parent="1" source="VQ9wwbrkHAM26FKO0fQ6-38" target="VQ9wwbrkHAM26FKO0fQ6-41">
                    <mxGeometry relative="1" as="geometry"/>
                </mxCell>
                <mxCell id="VQ9wwbrkHAM26FKO0fQ6-38" value="Check Usage of default ServiceAccount&lt;br&gt;(APP.4.4.A9)" style="rounded=0;whiteSpace=wrap;html=1;strokeColor=#F0F0F0;fillColor=#18141D;" vertex="1" parent="1">
                    <mxGeometry x="400" y="830" width="120" height="60" as="geometry"/>
                </mxCell>
                <mxCell id="VQ9wwbrkHAM26FKO0fQ6-39" style="edgeStyle=none;html=1;exitX=1;exitY=0.5;exitDx=0;exitDy=0;" edge="1" parent="1" source="VQ9wwbrkHAM26FKO0fQ6-40" target="VQ9wwbrkHAM26FKO0fQ6-41">
                    <mxGeometry relative="1" as="geometry"/>
                </mxCell>
                <mxCell id="VQ9wwbrkHAM26FKO0fQ6-40" value="Check Usage of specific ServiceAccount&lt;br&gt;(APP.4.4.A9)" style="rounded=0;whiteSpace=wrap;html=1;strokeColor=#F0F0F0;fillColor=#18141D;" vertex="1" parent="1">
                    <mxGeometry x="400" y="900" width="120" height="60" as="geometry"/>
                </mxCell>
                <mxCell id="VQ9wwbrkHAM26FKO0fQ6-41" value="END" style="strokeWidth=2;html=1;shape=mxgraph.flowchart.start_2;whiteSpace=wrap;fontFamily=Helvetica;fontSize=12;fontColor=default;align=center;strokeColor=#F0F0F0;fillColor=#18141D;" vertex="1" parent="1">
                    <mxGeometry x="680" y="450" width="100" height="100" as="geometry"/>
                </mxCell>
                <mxCell id="VQ9wwbrkHAM26FKO0fQ6-43" value="Manifest Checks" style="shape=process;whiteSpace=wrap;html=1;backgroundOutline=1;fontFamily=Helvetica;fontSize=12;fontColor=default;align=center;strokeColor=#F0F0F0;fillColor=#18141D;" vertex="1" parent="1">
                    <mxGeometry x="40" y="40" width="100" height="60" as="geometry"/>
                </mxCell>
                <mxCell id="IPkk63ZR87trLkFYC-J8-1" value="Image Checks" style="shape=process;whiteSpace=wrap;html=1;backgroundOutline=1;fontFamily=Helvetica;fontSize=12;fontColor=default;align=center;strokeColor=#F0F0F0;fillColor=#18141D;" vertex="1" parent="1">
                    <mxGeometry x="40" y="1200" width="100" height="60" as="geometry"/>
                </mxCell>
                <mxCell id="W6jcCN5Git9lOMRMjppY-1" style="edgeStyle=none;html=1;entryX=0;entryY=0.5;entryDx=0;entryDy=0;" edge="1" parent="1" source="W6jcCN5Git9lOMRMjppY-13" target="W6jcCN5Git9lOMRMjppY-18">
                    <mxGeometry relative="1" as="geometry"/>
                </mxCell>
                <mxCell id="W6jcCN5Git9lOMRMjppY-2" style="edgeStyle=none;html=1;entryX=0;entryY=0.5;entryDx=0;entryDy=0;" edge="1" parent="1" source="W6jcCN5Git9lOMRMjppY-13" target="W6jcCN5Git9lOMRMjppY-15">
                    <mxGeometry relative="1" as="geometry"/>
                </mxCell>
                <mxCell id="W6jcCN5Git9lOMRMjppY-3" style="edgeStyle=none;html=1;entryX=0;entryY=0.5;entryDx=0;entryDy=0;" edge="1" parent="1" source="W6jcCN5Git9lOMRMjppY-13" target="W6jcCN5Git9lOMRMjppY-43">
                    <mxGeometry relative="1" as="geometry"/>
                </mxCell>
                <mxCell id="W6jcCN5Git9lOMRMjppY-4" style="edgeStyle=none;html=1;entryX=-0.017;entryY=0.4;entryDx=0;entryDy=0;entryPerimeter=0;" edge="1" parent="1" source="W6jcCN5Git9lOMRMjppY-13" target="W6jcCN5Git9lOMRMjppY-20">
                    <mxGeometry relative="1" as="geometry"/>
                </mxCell>
                <mxCell id="W6jcCN5Git9lOMRMjppY-5" style="edgeStyle=none;html=1;entryX=0;entryY=0.5;entryDx=0;entryDy=0;" edge="1" parent="1" source="W6jcCN5Git9lOMRMjppY-13" target="W6jcCN5Git9lOMRMjppY-23">
                    <mxGeometry relative="1" as="geometry"/>
                </mxCell>
                <mxCell id="W6jcCN5Git9lOMRMjppY-6" style="edgeStyle=none;html=1;entryX=0;entryY=0.5;entryDx=0;entryDy=0;startArrow=none;" edge="1" parent="1" source="W6jcCN5Git9lOMRMjppY-13" target="W6jcCN5Git9lOMRMjppY-25">
                    <mxGeometry relative="1" as="geometry"/>
                </mxCell>
                <mxCell id="W6jcCN5Git9lOMRMjppY-7" style="edgeStyle=none;html=1;entryX=0;entryY=0.5;entryDx=0;entryDy=0;" edge="1" parent="1" source="W6jcCN5Git9lOMRMjppY-13" target="W6jcCN5Git9lOMRMjppY-38">
                    <mxGeometry relative="1" as="geometry"/>
                </mxCell>
                <mxCell id="W6jcCN5Git9lOMRMjppY-8" style="edgeStyle=none;html=1;entryX=0;entryY=0.5;entryDx=0;entryDy=0;" edge="1" parent="1" source="W6jcCN5Git9lOMRMjppY-13" target="W6jcCN5Git9lOMRMjppY-36">
                    <mxGeometry relative="1" as="geometry"/>
                </mxCell>
                <mxCell id="W6jcCN5Git9lOMRMjppY-9" style="edgeStyle=none;html=1;entryX=0;entryY=0.5;entryDx=0;entryDy=0;" edge="1" parent="1" source="W6jcCN5Git9lOMRMjppY-13" target="W6jcCN5Git9lOMRMjppY-30">
                    <mxGeometry relative="1" as="geometry"/>
                </mxCell>
                <mxCell id="W6jcCN5Git9lOMRMjppY-10" style="edgeStyle=none;html=1;entryX=0;entryY=0.5;entryDx=0;entryDy=0;" edge="1" parent="1" source="W6jcCN5Git9lOMRMjppY-13" target="W6jcCN5Git9lOMRMjppY-32">
                    <mxGeometry relative="1" as="geometry"/>
                </mxCell>
                <mxCell id="W6jcCN5Git9lOMRMjppY-11" style="edgeStyle=none;html=1;entryX=0;entryY=0.5;entryDx=0;entryDy=0;" edge="1" parent="1" source="W6jcCN5Git9lOMRMjppY-13" target="W6jcCN5Git9lOMRMjppY-40">
                    <mxGeometry relative="1" as="geometry"/>
                </mxCell>
                <mxCell id="W6jcCN5Git9lOMRMjppY-12" style="edgeStyle=none;html=1;entryX=0;entryY=0.5;entryDx=0;entryDy=0;" edge="1" parent="1" source="W6jcCN5Git9lOMRMjppY-13" target="W6jcCN5Git9lOMRMjppY-34">
                    <mxGeometry relative="1" as="geometry"/>
                </mxCell>
                <mxCell id="W6jcCN5Git9lOMRMjppY-13" value="START" style="ellipse;whiteSpace=wrap;html=1;fontFamily=Helvetica;fontSize=12;fontColor=default;align=center;strokeColor=#F0F0F0;fillColor=#18141D;" vertex="1" parent="1">
                    <mxGeometry x="90" y="1700" width="100" height="100" as="geometry"/>
                </mxCell>
                <mxCell id="W6jcCN5Git9lOMRMjppY-14" style="edgeStyle=none;html=1;exitX=1;exitY=0.5;exitDx=0;exitDy=0;" edge="1" parent="1" source="W6jcCN5Git9lOMRMjppY-15" target="W6jcCN5Git9lOMRMjppY-28">
                    <mxGeometry relative="1" as="geometry">
                        <mxPoint x="810" y="1750" as="targetPoint"/>
                    </mxGeometry>
                </mxCell>
                <mxCell id="W6jcCN5Git9lOMRMjppY-15" value="CVE-Scan" style="rounded=0;whiteSpace=wrap;html=1;strokeColor=#F0F0F0;fillColor=#18141D;" vertex="1" parent="1">
                    <mxGeometry x="400" y="1386.5" width="120" height="60" as="geometry"/>
                </mxCell>
                <mxCell id="W6jcCN5Git9lOMRMjppY-17" style="edgeStyle=none;html=1;exitX=1;exitY=0.5;exitDx=0;exitDy=0;" edge="1" parent="1" source="W6jcCN5Git9lOMRMjppY-18" target="W6jcCN5Git9lOMRMjppY-28">
                    <mxGeometry relative="1" as="geometry"/>
                </mxCell>
                <mxCell id="W6jcCN5Git9lOMRMjppY-18" value="Check Signatures&lt;br&gt;(&lt;span style=&quot;background-color: rgb(30, 30, 30); color: rgb(212, 212, 212); font-family: Menlo, Monaco, &amp;quot;Courier New&amp;quot;, monospace;&quot;&gt;SYS.1.6.A12)&lt;/span&gt;" style="rounded=0;whiteSpace=wrap;html=1;strokeColor=#F0F0F0;fillColor=#18141D;" vertex="1" parent="1">
                    <mxGeometry x="400" y="2090" width="120" height="60" as="geometry"/>
                </mxCell>
                <mxCell id="W6jcCN5Git9lOMRMjppY-19" style="edgeStyle=none;html=1;exitX=1;exitY=0.5;exitDx=0;exitDy=0;" edge="1" parent="1" source="W6jcCN5Git9lOMRMjppY-20" target="W6jcCN5Git9lOMRMjppY-28">
                    <mxGeometry relative="1" as="geometry"/>
                </mxCell>
                <mxCell id="W6jcCN5Git9lOMRMjppY-20" value="Check Labels&lt;br&gt;(&lt;span style=&quot;background-color: rgb(30, 30, 30); color: rgb(212, 212, 212); font-family: Menlo, Monaco, &amp;quot;Courier New&amp;quot;, monospace;&quot;&gt;SYS.1.6.A6)&lt;/span&gt;" style="rounded=0;whiteSpace=wrap;html=1;strokeColor=#F0F0F0;fillColor=#18141D;" vertex="1" parent="1">
                    <mxGeometry x="400" y="1600" width="120" height="60" as="geometry"/>
                </mxCell>
                <mxCell id="W6jcCN5Git9lOMRMjppY-21" style="edgeStyle=none;html=1;exitX=1;exitY=0.5;exitDx=0;exitDy=0;" edge="1" parent="1" source="W6jcCN5Git9lOMRMjppY-43" target="W6jcCN5Git9lOMRMjppY-28">
                    <mxGeometry relative="1" as="geometry"/>
                </mxCell>
                <mxCell id="W6jcCN5Git9lOMRMjppY-22" style="edgeStyle=none;html=1;exitX=1;exitY=0.5;exitDx=0;exitDy=0;" edge="1" parent="1" source="W6jcCN5Git9lOMRMjppY-23" target="W6jcCN5Git9lOMRMjppY-28">
                    <mxGeometry relative="1" as="geometry"/>
                </mxCell>
                <mxCell id="W6jcCN5Git9lOMRMjppY-23" value="Deprecated Base Image (SYS.1.6.A3)" style="rounded=0;whiteSpace=wrap;html=1;strokeColor=#F0F0F0;fillColor=#18141D;" vertex="1" parent="1">
                    <mxGeometry x="400" y="1530" width="120" height="60" as="geometry"/>
                </mxCell>
                <mxCell id="W6jcCN5Git9lOMRMjppY-24" style="edgeStyle=none;html=1;exitX=1;exitY=0.5;exitDx=0;exitDy=0;" edge="1" parent="1" source="W6jcCN5Git9lOMRMjppY-25" target="W6jcCN5Git9lOMRMjppY-28">
                    <mxGeometry relative="1" as="geometry"/>
                </mxCell>
                <mxCell id="W6jcCN5Git9lOMRMjppY-25" value="SBOM Check" style="rounded=0;whiteSpace=wrap;html=1;strokeColor=#F0F0F0;fillColor=#18141D;" vertex="1" parent="1">
                    <mxGeometry x="400" y="1310" width="120" height="60" as="geometry"/>
                </mxCell>
                <mxCell id="W6jcCN5Git9lOMRMjppY-28" value="END" style="ellipse;whiteSpace=wrap;html=1;aspect=fixed;fontFamily=Helvetica;fontSize=12;fontColor=default;align=center;strokeColor=#F0F0F0;fillColor=#18141D;" vertex="1" parent="1">
                    <mxGeometry x="680" y="1700" width="100" height="100" as="geometry"/>
                </mxCell>
                <mxCell id="W6jcCN5Git9lOMRMjppY-29" style="edgeStyle=none;html=1;" edge="1" parent="1" source="W6jcCN5Git9lOMRMjppY-30" target="W6jcCN5Git9lOMRMjppY-28">
                    <mxGeometry relative="1" as="geometry"/>
                </mxCell>
                <mxCell id="W6jcCN5Git9lOMRMjppY-30" value="Check for forbidden Packages (SYS.1.6.A11, SYS.1.6.A14, SYS.1.6.A16)" style="rounded=0;whiteSpace=wrap;html=1;strokeColor=#F0F0F0;fillColor=#18141D;" vertex="1" parent="1">
                    <mxGeometry x="400" y="1810" width="120" height="60" as="geometry"/>
                </mxCell>
                <mxCell id="W6jcCN5Git9lOMRMjppY-31" style="edgeStyle=none;html=1;exitX=1.025;exitY=0.4;exitDx=0;exitDy=0;exitPerimeter=0;" edge="1" parent="1" source="W6jcCN5Git9lOMRMjppY-32" target="W6jcCN5Git9lOMRMjppY-28">
                    <mxGeometry relative="1" as="geometry"/>
                </mxCell>
                <mxCell id="W6jcCN5Git9lOMRMjppY-32" value="Check forbidden Ports&lt;br&gt;(SYS.1.6.A16)" style="rounded=0;whiteSpace=wrap;html=1;strokeColor=#F0F0F0;fillColor=#18141D;" vertex="1" parent="1">
                    <mxGeometry x="400" y="1880" width="120" height="60" as="geometry"/>
                </mxCell>
                <mxCell id="W6jcCN5Git9lOMRMjppY-33" style="edgeStyle=none;html=1;exitX=1;exitY=0.5;exitDx=0;exitDy=0;" edge="1" parent="1" source="W6jcCN5Git9lOMRMjppY-34" target="W6jcCN5Git9lOMRMjppY-28">
                    <mxGeometry relative="1" as="geometry"/>
                </mxCell>
                <mxCell id="W6jcCN5Git9lOMRMjppY-34" value="Check Metadata&lt;br&gt;(SYS.1.6.A12)" style="rounded=0;whiteSpace=wrap;html=1;strokeColor=#F0F0F0;fillColor=#18141D;" vertex="1" parent="1">
                    <mxGeometry x="400" y="2020" width="120" height="60" as="geometry"/>
                </mxCell>
                <mxCell id="W6jcCN5Git9lOMRMjppY-35" style="edgeStyle=none;html=1;exitX=1;exitY=0.5;exitDx=0;exitDy=0;" edge="1" parent="1" source="W6jcCN5Git9lOMRMjppY-36" target="W6jcCN5Git9lOMRMjppY-28">
                    <mxGeometry relative="1" as="geometry"/>
                </mxCell>
                <mxCell id="W6jcCN5Git9lOMRMjppY-36" value="Check for SECRETS&lt;br&gt;(SYS.1.6.A8)" style="rounded=0;whiteSpace=wrap;html=1;strokeColor=#F0F0F0;fillColor=#18141D;" vertex="1" parent="1">
                    <mxGeometry x="400" y="1740" width="120" height="60" as="geometry"/>
                </mxCell>
                <mxCell id="W6jcCN5Git9lOMRMjppY-37" style="edgeStyle=none;html=1;exitX=1;exitY=0.5;exitDx=0;exitDy=0;" edge="1" parent="1" source="W6jcCN5Git9lOMRMjppY-38" target="W6jcCN5Git9lOMRMjppY-28">
                    <mxGeometry relative="1" as="geometry"/>
                </mxCell>
                <mxCell id="W6jcCN5Git9lOMRMjppY-38" value="Check Versioning&lt;br&gt;(SYS.1.6.A6)" style="rounded=0;whiteSpace=wrap;html=1;strokeColor=#F0F0F0;fillColor=#18141D;" vertex="1" parent="1">
                    <mxGeometry x="400" y="1670" width="120" height="60" as="geometry"/>
                </mxCell>
                <mxCell id="W6jcCN5Git9lOMRMjppY-39" style="edgeStyle=none;html=1;exitX=1;exitY=0.5;exitDx=0;exitDy=0;" edge="1" parent="1" source="W6jcCN5Git9lOMRMjppY-40" target="W6jcCN5Git9lOMRMjppY-28">
                    <mxGeometry relative="1" as="geometry"/>
                </mxCell>
                <mxCell id="W6jcCN5Git9lOMRMjppY-40" value="Check for Health-Check&lt;br&gt;(SYS.1.6.A3, APP.4.4.A11)" style="rounded=0;whiteSpace=wrap;html=1;strokeColor=#F0F0F0;fillColor=#18141D;" vertex="1" parent="1">
                    <mxGeometry x="400" y="1950" width="120" height="60" as="geometry"/>
                </mxCell>
                <mxCell id="W6jcCN5Git9lOMRMjppY-42" value="" style="edgeStyle=none;html=1;entryX=0;entryY=0.5;entryDx=0;entryDy=0;endArrow=none;" edge="1" parent="1" source="W6jcCN5Git9lOMRMjppY-13" target="W6jcCN5Git9lOMRMjppY-43">
                    <mxGeometry relative="1" as="geometry">
                        <mxPoint x="190" y="1576.4556962025317" as="sourcePoint"/>
                        <mxPoint x="920" y="1290" as="targetPoint"/>
                    </mxGeometry>
                </mxCell>
                <mxCell id="W6jcCN5Git9lOMRMjppY-43" value="AV Scan" style="rounded=0;whiteSpace=wrap;html=1;strokeColor=#F0F0F0;fillColor=#18141D;" vertex="1" parent="1">
                    <mxGeometry x="400" y="1460" width="120" height="60" as="geometry"/>
                </mxCell>
                <mxCell id="NkDEDs-G2R-opkZsQ9q6-1" value="SourceCode Security Checks" style="shape=process;whiteSpace=wrap;html=1;backgroundOutline=1;fontFamily=Helvetica;fontSize=12;fontColor=default;align=center;strokeColor=#F0F0F0;fillColor=#18141D;" vertex="1" parent="1">
                    <mxGeometry x="40" y="2360" width="120" height="60" as="geometry"/>
                </mxCell>
                <mxCell id="P3PvOXRYVx8Ndl_4L-4U-1" value="Development" style="shape=process;whiteSpace=wrap;html=1;backgroundOutline=1;strokeColor=#F0F0F0;fillColor=#18141D;" vertex="1" parent="1">
                    <mxGeometry x="40" y="3520" width="120" height="60" as="geometry"/>
                </mxCell>
                <mxCell id="pxk92rjR5Kd_biuQwNYh-22" value="" style="edgeStyle=none;html=1;" edge="1" parent="1" source="pxk92rjR5Kd_biuQwNYh-6" target="pxk92rjR5Kd_biuQwNYh-21">
                    <mxGeometry relative="1" as="geometry"/>
                </mxCell>
                <mxCell id="pxk92rjR5Kd_biuQwNYh-6" value="Build&lt;br&gt;(local)" style="shape=process;whiteSpace=wrap;html=1;backgroundOutline=1;strokeColor=#F0F0F0;fillColor=#18141D;" vertex="1" parent="1">
                    <mxGeometry x="520" y="3740" width="120" height="60" as="geometry"/>
                </mxCell>
                <mxCell id="pxk92rjR5Kd_biuQwNYh-17" style="edgeStyle=none;html=1;" edge="1" parent="1" source="pxk92rjR5Kd_biuQwNYh-8" target="pxk92rjR5Kd_biuQwNYh-9">
                    <mxGeometry relative="1" as="geometry"/>
                </mxCell>
                <mxCell id="pxk92rjR5Kd_biuQwNYh-8" value="Commit Code" style="rounded=0;whiteSpace=wrap;html=1;strokeColor=#F0F0F0;fillColor=#18141D;" vertex="1" parent="1">
                    <mxGeometry x="700" y="4218" width="120" height="60" as="geometry"/>
                </mxCell>
                <mxCell id="D481NhT32VPPNPw6ko8l-6" style="edgeStyle=none;html=1;" edge="1" parent="1" source="pxk92rjR5Kd_biuQwNYh-9" target="D481NhT32VPPNPw6ko8l-5">
                    <mxGeometry relative="1" as="geometry"/>
                </mxCell>
                <mxCell id="pxk92rjR5Kd_biuQwNYh-9" value="&lt;font style=&quot;font-size: 12px;&quot;&gt;Upload Code to Version Control&lt;br&gt;&lt;font style=&quot;&quot;&gt;(&lt;span style=&quot;&quot; id=&quot;page137R_mcid32&quot; class=&quot;markedContent&quot;&gt;&lt;span dir=&quot;ltr&quot; role=&quot;presentation&quot; style=&quot;left: 94.6667px; top: 865.501px; transform: scaleX(0.968316);&quot;&gt;CON.8.A10)&lt;/span&gt;&lt;/span&gt;&lt;/font&gt;&lt;/font&gt;&lt;span id=&quot;page137R_mcid33&quot; class=&quot;markedContent&quot;&gt;&lt;span dir=&quot;ltr&quot; role=&quot;presentation&quot; style=&quot;left: 188.287px; top: 865.501px; font-size: 20px; font-family: serif;&quot;&gt;&lt;/span&gt;&lt;/span&gt;" style="rounded=0;whiteSpace=wrap;html=1;strokeColor=#F0F0F0;fillColor=#18141D;" vertex="1" parent="1">
                    <mxGeometry x="700" y="4304" width="120" height="60" as="geometry"/>
                </mxCell>
                <mxCell id="pxk92rjR5Kd_biuQwNYh-40" style="edgeStyle=none;html=1;" edge="1" parent="1" target="pxk92rjR5Kd_biuQwNYh-12">
                    <mxGeometry relative="1" as="geometry">
                        <mxPoint x="760" y="4010" as="sourcePoint"/>
                    </mxGeometry>
                </mxCell>
                <mxCell id="pxk92rjR5Kd_biuQwNYh-29" value="" style="edgeStyle=none;html=1;" edge="1" parent="1" source="pxk92rjR5Kd_biuQwNYh-19" target="pxk92rjR5Kd_biuQwNYh-6">
                    <mxGeometry relative="1" as="geometry"/>
                </mxCell>
                <mxCell id="pxk92rjR5Kd_biuQwNYh-19" value="Write Code" style="rounded=0;whiteSpace=wrap;html=1;strokeColor=#F0F0F0;fillColor=#18141D;" vertex="1" parent="1">
                    <mxGeometry x="310" y="3740" width="120" height="60" as="geometry"/>
                </mxCell>
                <mxCell id="pxk92rjR5Kd_biuQwNYh-21" value="Run (functional) Tests&lt;br&gt;(local)" style="rounded=0;whiteSpace=wrap;html=1;strokeColor=#F0F0F0;fillColor=#18141D;" vertex="1" parent="1">
                    <mxGeometry x="520" y="3830" width="120" height="60" as="geometry"/>
                </mxCell>
                <mxCell id="pxk92rjR5Kd_biuQwNYh-32" value="yes" style="edgeStyle=none;html=1;entryX=0.5;entryY=0;entryDx=0;entryDy=0;exitX=0.5;exitY=1;exitDx=0;exitDy=0;" edge="1" parent="1" source="pxk92rjR5Kd_biuQwNYh-26" target="D481NhT32VPPNPw6ko8l-1">
                    <mxGeometry relative="1" as="geometry">
                        <mxPoint x="760" y="3950" as="targetPoint"/>
                    </mxGeometry>
                </mxCell>
                <mxCell id="pxk92rjR5Kd_biuQwNYh-33" value="no" style="edgeStyle=none;html=1;" edge="1" parent="1" source="pxk92rjR5Kd_biuQwNYh-26" target="pxk92rjR5Kd_biuQwNYh-19">
                    <mxGeometry relative="1" as="geometry">
                        <Array as="points">
                            <mxPoint x="760" y="3660"/>
                            <mxPoint x="370" y="3660"/>
                        </Array>
                    </mxGeometry>
                </mxCell>
                <mxCell id="pxk92rjR5Kd_biuQwNYh-26" value="Tests OK" style="rhombus;whiteSpace=wrap;html=1;strokeColor=#F0F0F0;fillColor=#18141D;" vertex="1" parent="1">
                    <mxGeometry x="720" y="3820" width="80" height="80" as="geometry"/>
                </mxCell>
                <mxCell id="pxk92rjR5Kd_biuQwNYh-28" value="" style="edgeStyle=none;html=1;" edge="1" parent="1" source="pxk92rjR5Kd_biuQwNYh-27" target="pxk92rjR5Kd_biuQwNYh-19">
                    <mxGeometry relative="1" as="geometry"/>
                </mxCell>
                <mxCell id="pxk92rjR5Kd_biuQwNYh-30" style="edgeStyle=none;html=1;" edge="1" parent="1" source="pxk92rjR5Kd_biuQwNYh-21" target="pxk92rjR5Kd_biuQwNYh-26">
                    <mxGeometry relative="1" as="geometry"/>
                </mxCell>
                <mxCell id="pxk92rjR5Kd_biuQwNYh-27" value="Write Tests&lt;br&gt;(CON.8.A7)" style="rounded=0;whiteSpace=wrap;html=1;strokeColor=#F0F0F0;fillColor=#18141D;" vertex="1" parent="1">
                    <mxGeometry x="150" y="3740" width="120" height="60" as="geometry"/>
                </mxCell>
                <mxCell id="pxk92rjR5Kd_biuQwNYh-36" value="" style="edgeStyle=none;html=1;" edge="1" parent="1" source="pxk92rjR5Kd_biuQwNYh-35" target="pxk92rjR5Kd_biuQwNYh-27">
                    <mxGeometry relative="1" as="geometry"/>
                </mxCell>
                <mxCell id="pxk92rjR5Kd_biuQwNYh-35" value="START" style="ellipse;whiteSpace=wrap;html=1;aspect=fixed;strokeColor=#F0F0F0;fillColor=#18141D;" vertex="1" parent="1">
                    <mxGeometry x="30" y="3730" width="80" height="80" as="geometry"/>
                </mxCell>
                <mxCell id="D481NhT32VPPNPw6ko8l-16" style="edgeStyle=none;html=1;fontFamily=Helvetica;fontSize=12;" edge="1" parent="1" source="D481NhT32VPPNPw6ko8l-1" target="D481NhT32VPPNPw6ko8l-13">
                    <mxGeometry relative="1" as="geometry"/>
                </mxCell>
                <mxCell id="D481NhT32VPPNPw6ko8l-1" value="Source Code Security Checks" style="shape=process;whiteSpace=wrap;html=1;backgroundOutline=1;strokeColor=#F0F0F0;fillColor=#18141D;" vertex="1" parent="1">
                    <mxGeometry x="700" y="3960" width="120" height="60" as="geometry"/>
                </mxCell>
                <mxCell id="D481NhT32VPPNPw6ko8l-2" value="kube-linter&lt;br&gt;(BSI Security Checks)" style="rounded=0;whiteSpace=wrap;html=1;strokeColor=#F0F0F0;fillColor=#18141D;" vertex="1" parent="1">
                    <mxGeometry x="280" y="2610" width="120" height="60" as="geometry"/>
                </mxCell>
                <mxCell id="D481NhT32VPPNPw6ko8l-3" value="Check for Secrets" style="rounded=0;whiteSpace=wrap;html=1;strokeColor=#F0F0F0;fillColor=#18141D;" vertex="1" parent="1">
                    <mxGeometry x="280" y="2700" width="120" height="60" as="geometry"/>
                </mxCell>
                <mxCell id="D481NhT32VPPNPw6ko8l-5" value="END" style="ellipse;whiteSpace=wrap;html=1;aspect=fixed;strokeColor=#F0F0F0;fillColor=#18141D;" vertex="1" parent="1">
                    <mxGeometry x="720" y="4390" width="80" height="80" as="geometry"/>
                </mxCell>
                <mxCell id="D481NhT32VPPNPw6ko8l-7" value="Build" style="shape=process;whiteSpace=wrap;html=1;backgroundOutline=1;strokeColor=#F0F0F0;fillColor=#18141D;" vertex="1" parent="1">
                    <mxGeometry x="40" y="4720" width="120" height="60" as="geometry"/>
                </mxCell>
                <mxCell id="D481NhT32VPPNPw6ko8l-18" style="edgeStyle=none;html=1;fontFamily=Helvetica;fontSize=12;" edge="1" parent="1" source="D481NhT32VPPNPw6ko8l-8" target="D481NhT32VPPNPw6ko8l-9">
                    <mxGeometry relative="1" as="geometry"/>
                </mxCell>
                <mxCell id="D481NhT32VPPNPw6ko8l-8" value="START" style="ellipse;whiteSpace=wrap;html=1;aspect=fixed;strokeColor=#F0F0F0;fillColor=#18141D;" vertex="1" parent="1">
                    <mxGeometry x="40" y="4970" width="80" height="80" as="geometry"/>
                </mxCell>
                <mxCell id="D481NhT32VPPNPw6ko8l-19" style="edgeStyle=none;html=1;fontFamily=Helvetica;fontSize=12;" edge="1" parent="1" source="D481NhT32VPPNPw6ko8l-9" target="D481NhT32VPPNPw6ko8l-10">
                    <mxGeometry relative="1" as="geometry"/>
                </mxCell>
                <mxCell id="D481NhT32VPPNPw6ko8l-20" style="edgeStyle=none;html=1;fontFamily=Helvetica;fontSize=12;" edge="1" parent="1" source="D481NhT32VPPNPw6ko8l-9" target="D481NhT32VPPNPw6ko8l-11">
                    <mxGeometry relative="1" as="geometry"/>
                </mxCell>
                <mxCell id="D481NhT32VPPNPw6ko8l-21" style="edgeStyle=none;html=1;fontFamily=Helvetica;fontSize=12;" edge="1" parent="1" source="D481NhT32VPPNPw6ko8l-9" target="D481NhT32VPPNPw6ko8l-12">
                    <mxGeometry relative="1" as="geometry"/>
                </mxCell>
                <mxCell id="UvZKJy_g1RZRymFDbXQh-16" style="edgeStyle=none;html=1;entryX=0;entryY=0.5;entryDx=0;entryDy=0;fontFamily=Helvetica;fontSize=12;" edge="1" parent="1" source="D481NhT32VPPNPw6ko8l-9" target="UvZKJy_g1RZRymFDbXQh-15">
                    <mxGeometry relative="1" as="geometry"/>
                </mxCell>
                <mxCell id="D481NhT32VPPNPw6ko8l-9" value="Download external Artifacts from trusted Sources&lt;br&gt;(CON.8.A6)" style="rounded=0;whiteSpace=wrap;html=1;strokeColor=#F0F0F0;fontFamily=Helvetica;fontSize=12;fillColor=#18141D;" vertex="1" parent="1">
                    <mxGeometry x="170" y="4980" width="120" height="60" as="geometry"/>
                </mxCell>
                <mxCell id="D481NhT32VPPNPw6ko8l-23" style="edgeStyle=none;html=1;fontFamily=Helvetica;fontSize=12;" edge="1" parent="1" source="D481NhT32VPPNPw6ko8l-10" target="D481NhT32VPPNPw6ko8l-22">
                    <mxGeometry relative="1" as="geometry"/>
                </mxCell>
                <mxCell id="D481NhT32VPPNPw6ko8l-10" value="Check External Artifacts against SHA&lt;br&gt;(CON.8.A20)" style="rounded=0;whiteSpace=wrap;html=1;strokeColor=#F0F0F0;fontFamily=Helvetica;fontSize=12;fillColor=#18141D;" vertex="1" parent="1">
                    <mxGeometry x="330" y="4980" width="120" height="60" as="geometry"/>
                </mxCell>
                <mxCell id="D481NhT32VPPNPw6ko8l-24" style="edgeStyle=none;html=1;fontFamily=Helvetica;fontSize=12;" edge="1" parent="1" source="D481NhT32VPPNPw6ko8l-11" target="D481NhT32VPPNPw6ko8l-22">
                    <mxGeometry relative="1" as="geometry"/>
                </mxCell>
                <mxCell id="D481NhT32VPPNPw6ko8l-11" value="AV-Scan external Artifacts&lt;br&gt;(CON.8.A.20)" style="rounded=0;whiteSpace=wrap;html=1;strokeColor=#F0F0F0;fontFamily=Helvetica;fontSize=12;fillColor=#18141D;" vertex="1" parent="1">
                    <mxGeometry x="330" y="4910" width="120" height="60" as="geometry"/>
                </mxCell>
                <mxCell id="D481NhT32VPPNPw6ko8l-26" style="edgeStyle=none;html=1;fontFamily=Helvetica;fontSize=12;" edge="1" parent="1" source="D481NhT32VPPNPw6ko8l-12" target="D481NhT32VPPNPw6ko8l-25">
                    <mxGeometry relative="1" as="geometry"/>
                </mxCell>
                <mxCell id="D481NhT32VPPNPw6ko8l-12" value="Check for newer Versions (CON.8.A20)" style="rounded=0;whiteSpace=wrap;html=1;strokeColor=#F0F0F0;fontFamily=Helvetica;fontSize=12;fillColor=#18141D;" vertex="1" parent="1">
                    <mxGeometry x="330" y="5050" width="120" height="60" as="geometry"/>
                </mxCell>
                <mxCell id="D481NhT32VPPNPw6ko8l-17" style="edgeStyle=none;html=1;fontFamily=Helvetica;fontSize=12;" edge="1" parent="1" source="D481NhT32VPPNPw6ko8l-13" target="UvZKJy_g1RZRymFDbXQh-18">
                    <mxGeometry relative="1" as="geometry"/>
                </mxCell>
                <mxCell id="D481NhT32VPPNPw6ko8l-13" value="Write Docs&lt;br&gt;(CON.8.A12)" style="rounded=0;whiteSpace=wrap;html=1;strokeColor=#F0F0F0;fillColor=#18141D;" vertex="1" parent="1">
                    <mxGeometry x="700" y="4046" width="120" height="60" as="geometry"/>
                </mxCell>
                <mxCell id="D481NhT32VPPNPw6ko8l-29" style="edgeStyle=none;html=1;fontFamily=Helvetica;fontSize=12;exitX=1;exitY=0.5;exitDx=0;exitDy=0;" edge="1" parent="1" source="D481NhT32VPPNPw6ko8l-22" target="D481NhT32VPPNPw6ko8l-28">
                    <mxGeometry relative="1" as="geometry"/>
                </mxCell>
                <mxCell id="D481NhT32VPPNPw6ko8l-40" value="no" style="edgeStyle=none;html=1;fontFamily=Helvetica;fontSize=12;" edge="1" parent="1" source="D481NhT32VPPNPw6ko8l-22" target="D481NhT32VPPNPw6ko8l-30">
                    <mxGeometry relative="1" as="geometry"/>
                </mxCell>
                <mxCell id="D481NhT32VPPNPw6ko8l-22" value="Checks OK?" style="rhombus;whiteSpace=wrap;html=1;strokeColor=#F0F0F0;fontFamily=Helvetica;fontSize=12;fillColor=#18141D;" vertex="1" parent="1">
                    <mxGeometry x="520" y="4940" width="80" height="80" as="geometry"/>
                </mxCell>
                <mxCell id="D481NhT32VPPNPw6ko8l-31" value="no" style="edgeStyle=none;html=1;fontFamily=Helvetica;fontSize=12;exitX=1;exitY=0.5;exitDx=0;exitDy=0;" edge="1" parent="1" source="D481NhT32VPPNPw6ko8l-25" target="D481NhT32VPPNPw6ko8l-28">
                    <mxGeometry relative="1" as="geometry">
                        <mxPoint x="560" y="5200" as="targetPoint"/>
                    </mxGeometry>
                </mxCell>
                <mxCell id="D481NhT32VPPNPw6ko8l-33" value="yes" style="edgeStyle=none;html=1;fontFamily=Helvetica;fontSize=12;exitX=1;exitY=0.5;exitDx=0;exitDy=0;" edge="1" parent="1" source="D481NhT32VPPNPw6ko8l-25" target="D481NhT32VPPNPw6ko8l-32">
                    <mxGeometry relative="1" as="geometry"/>
                </mxCell>
                <mxCell id="D481NhT32VPPNPw6ko8l-25" value="Newer Version?" style="rhombus;whiteSpace=wrap;html=1;strokeColor=#F0F0F0;fontFamily=Helvetica;fontSize=12;fillColor=#18141D;" vertex="1" parent="1">
                    <mxGeometry x="520" y="5040" width="80" height="80" as="geometry"/>
                </mxCell>
                <mxCell id="UvZKJy_g1RZRymFDbXQh-12" style="edgeStyle=none;html=1;fontFamily=Helvetica;fontSize=12;" edge="1" parent="1" source="D481NhT32VPPNPw6ko8l-28" target="UvZKJy_g1RZRymFDbXQh-11">
                    <mxGeometry relative="1" as="geometry"/>
                </mxCell>
                <mxCell id="D481NhT32VPPNPw6ko8l-28" value="Build Image" style="rounded=0;whiteSpace=wrap;html=1;strokeColor=#F0F0F0;fontFamily=Helvetica;fontSize=12;fillColor=#18141D;" vertex="1" parent="1">
                    <mxGeometry x="670" y="4990" width="120" height="60" as="geometry"/>
                </mxCell>
                <mxCell id="UvZKJy_g1RZRymFDbXQh-5" style="edgeStyle=none;html=1;fontFamily=Helvetica;fontSize=12;" edge="1" parent="1" source="D481NhT32VPPNPw6ko8l-30" target="UvZKJy_g1RZRymFDbXQh-4">
                    <mxGeometry relative="1" as="geometry"/>
                </mxCell>
                <mxCell id="D481NhT32VPPNPw6ko8l-30" value="Fail and print Error" style="rounded=0;whiteSpace=wrap;html=1;strokeColor=#F0F0F0;fontFamily=Helvetica;fontSize=12;fillColor=#18141D;" vertex="1" parent="1">
                    <mxGeometry x="500" y="4780" width="120" height="60" as="geometry"/>
                </mxCell>
                <mxCell id="D481NhT32VPPNPw6ko8l-34" style="edgeStyle=none;html=1;fontFamily=Helvetica;fontSize=12;" edge="1" parent="1" source="D481NhT32VPPNPw6ko8l-32" target="D481NhT32VPPNPw6ko8l-28">
                    <mxGeometry relative="1" as="geometry"/>
                </mxCell>
                <mxCell id="D481NhT32VPPNPw6ko8l-39" value="" style="edgeStyle=none;html=1;fontFamily=Helvetica;fontSize=12;" edge="1" parent="1" source="D481NhT32VPPNPw6ko8l-32" target="D481NhT32VPPNPw6ko8l-38">
                    <mxGeometry relative="1" as="geometry"/>
                </mxCell>
                <mxCell id="D481NhT32VPPNPw6ko8l-32" value="Send Version Warning" style="rounded=0;whiteSpace=wrap;html=1;strokeColor=#F0F0F0;fontFamily=Helvetica;fontSize=12;fillColor=#18141D;" vertex="1" parent="1">
                    <mxGeometry x="670" y="5100" width="120" height="60" as="geometry"/>
                </mxCell>
                <mxCell id="UvZKJy_g1RZRymFDbXQh-13" style="edgeStyle=none;html=1;entryX=0.5;entryY=1;entryDx=0;entryDy=0;fontFamily=Helvetica;fontSize=12;" edge="1" parent="1" source="D481NhT32VPPNPw6ko8l-38" target="UvZKJy_g1RZRymFDbXQh-11">
                    <mxGeometry relative="1" as="geometry">
                        <Array as="points">
                            <mxPoint x="910" y="5240"/>
                        </Array>
                    </mxGeometry>
                </mxCell>
                <mxCell id="D481NhT32VPPNPw6ko8l-38" value="Manual &lt;br&gt;Remediation" style="verticalLabelPosition=middle;verticalAlign=middle;html=1;shape=trapezoid;perimeter=trapezoidPerimeter;whiteSpace=wrap;size=0.23;arcSize=10;flipV=1;labelPosition=center;align=center;strokeColor=#F0F0F0;fontFamily=Helvetica;fontSize=12;fillColor=#A31733;" vertex="1" parent="1">
                    <mxGeometry x="670" y="5210" width="120" height="60" as="geometry"/>
                </mxCell>
                <mxCell id="UvZKJy_g1RZRymFDbXQh-2" style="edgeStyle=none;html=1;fontFamily=Helvetica;fontSize=12;" edge="1" parent="1" source="UvZKJy_g1RZRymFDbXQh-1" target="D481NhT32VPPNPw6ko8l-38">
                    <mxGeometry relative="1" as="geometry"/>
                </mxCell>
                <mxCell id="UvZKJy_g1RZRymFDbXQh-3" style="edgeStyle=none;html=1;entryX=0.5;entryY=1;entryDx=0;entryDy=0;fontFamily=Helvetica;fontSize=12;" edge="1" parent="1" source="UvZKJy_g1RZRymFDbXQh-1" target="D481NhT32VPPNPw6ko8l-12">
                    <mxGeometry relative="1" as="geometry"/>
                </mxCell>
                <mxCell id="UvZKJy_g1RZRymFDbXQh-1" value="Unternehmens Policy&lt;br&gt;- Wie neu sollen und duerfen Versionen sein?" style="shape=document;whiteSpace=wrap;html=1;boundedLbl=1;strokeColor=#F0F0F0;fontFamily=Helvetica;fontSize=12;fillColor=#A31733;" vertex="1" parent="1">
                    <mxGeometry x="330" y="5185" width="120" height="110" as="geometry"/>
                </mxCell>
                <mxCell id="UvZKJy_g1RZRymFDbXQh-14" style="edgeStyle=none;html=1;entryX=0.5;entryY=0;entryDx=0;entryDy=0;fontFamily=Helvetica;fontSize=12;" edge="1" parent="1" source="UvZKJy_g1RZRymFDbXQh-4" target="UvZKJy_g1RZRymFDbXQh-11">
                    <mxGeometry relative="1" as="geometry">
                        <Array as="points">
                            <mxPoint x="910" y="4810"/>
                        </Array>
                    </mxGeometry>
                </mxCell>
                <mxCell id="UvZKJy_g1RZRymFDbXQh-4" value="Manual &lt;br&gt;Remediation" style="verticalLabelPosition=middle;verticalAlign=middle;html=1;shape=trapezoid;perimeter=trapezoidPerimeter;whiteSpace=wrap;size=0.23;arcSize=10;flipV=1;labelPosition=center;align=center;strokeColor=#F0F0F0;fontFamily=Helvetica;fontSize=12;fillColor=#A31733;" vertex="1" parent="1">
                    <mxGeometry x="660" y="4780" width="120" height="60" as="geometry"/>
                </mxCell>
                <mxCell id="UvZKJy_g1RZRymFDbXQh-11" value="END" style="ellipse;whiteSpace=wrap;html=1;aspect=fixed;strokeColor=#F0F0F0;fillColor=#18141D;" vertex="1" parent="1">
                    <mxGeometry x="870" y="4980" width="80" height="80" as="geometry"/>
                </mxCell>
                <mxCell id="UvZKJy_g1RZRymFDbXQh-17" style="edgeStyle=none;html=1;fontFamily=Helvetica;fontSize=12;exitX=1;exitY=0.5;exitDx=0;exitDy=0;" edge="1" parent="1" source="UvZKJy_g1RZRymFDbXQh-15" target="D481NhT32VPPNPw6ko8l-22">
                    <mxGeometry relative="1" as="geometry"/>
                </mxCell>
                <mxCell id="UvZKJy_g1RZRymFDbXQh-15" value="SBOM Check" style="rounded=0;whiteSpace=wrap;html=1;strokeColor=#F0F0F0;fontFamily=Helvetica;fontSize=12;fillColor=#18141D;" vertex="1" parent="1">
                    <mxGeometry x="330" y="4840" width="120" height="60" as="geometry"/>
                </mxCell>
                <mxCell id="UvZKJy_g1RZRymFDbXQh-19" style="edgeStyle=none;html=1;fontFamily=Helvetica;fontSize=12;" edge="1" parent="1" source="UvZKJy_g1RZRymFDbXQh-18" target="pxk92rjR5Kd_biuQwNYh-8">
                    <mxGeometry relative="1" as="geometry"/>
                </mxCell>
                <mxCell id="UvZKJy_g1RZRymFDbXQh-18" value="Create SBOM" style="rounded=0;whiteSpace=wrap;html=1;strokeColor=#F0F0F0;fontFamily=Helvetica;fontSize=12;fillColor=#18141D;" vertex="1" parent="1">
                    <mxGeometry x="700" y="4132" width="120" height="60" as="geometry"/>
                </mxCell>
                <mxCell id="bE6IOhyRGn8nJaOQrPKB-1" value="Unternehmens Policy&lt;br&gt;- Nach welchen Secrets wird wie gescannt?&lt;br&gt;- Welche Limits/Requests sind unter oder Obergrenzen?&lt;br&gt;- Welche Ports sind erlaubt oder verboten?&lt;br&gt;- Welche Capabilities sind erlaubt oder verboten?&lt;br&gt;- Ist Lokaler Storage erlaubt, wenn ja fuer welche Anwendungen?&lt;br&gt;- Reicht mir ein Label bei der Serviceaccountbegruendung, also die Existenz, oder brauche ich einen Freigabeprozess?" style="shape=document;whiteSpace=wrap;html=1;boundedLbl=1;strokeColor=#F0F0F0;fontFamily=Helvetica;fontSize=12;fillColor=#A31733;" vertex="1" parent="1">
                    <mxGeometry x="970" y="150" width="330" height="220" as="geometry"/>
                </mxCell>
                <mxCell id="bE6IOhyRGn8nJaOQrPKB-2" value="Unternehmens Policy&lt;br&gt;- Wie gehe ich mit Detektierten CVEs um?&lt;br&gt;- Wie gehe ich mit gefundenen Viren um?&lt;br&gt;Welche Label sind fuer mich zwingend erforderlich und welche nicht?&lt;br&gt;- Welche Versionierungsmodelle nutze ich (SemVer?)?&lt;br&gt;- Nach welchen Secrets wird wie gescannt?&lt;br&gt;- Welche Pakete sind verboten, wer legt das wie fest?&lt;br&gt;- Welche Ports sind verboten, wer legt das wie fest?&lt;br&gt;- Wie sehen Ausnahmeprozesse aus?&lt;br&gt;- Welche Metadaten sind erforederlich?&lt;br&gt;- Was mache ich bei Signaturverletzungen?" style="shape=document;whiteSpace=wrap;html=1;boundedLbl=1;strokeColor=#F0F0F0;fontFamily=Helvetica;fontSize=12;fillColor=#A31733;" vertex="1" parent="1">
                    <mxGeometry x="1000" y="1640" width="330" height="240" as="geometry"/>
                </mxCell>
            </root>
        </mxGraphModel>
    </diagram>
    <diagram id="pYR55TTQ8GlQclpcNnh3" name="Process-PullDelivery">
        <mxGraphModel dx="1915" dy="1222" grid="1" gridSize="10" guides="1" tooltips="1" connect="1" arrows="1" fold="1" page="1" pageScale="1" pageWidth="1169" pageHeight="827" math="0" shadow="0">
            <root>
                <mxCell id="0"/>
                <mxCell id="1" parent="0"/>
                <mxCell id="uU5GFD_xgaYbaaGpvH6P-15" style="edgeStyle=none;html=1;" edge="1" parent="1" source="JOWtnYizs2zbeMubpXw3-1" target="uU5GFD_xgaYbaaGpvH6P-36">
                    <mxGeometry relative="1" as="geometry"/>
                </mxCell>
                <mxCell id="uU5GFD_xgaYbaaGpvH6P-17" style="edgeStyle=none;html=1;" edge="1" parent="1" source="JOWtnYizs2zbeMubpXw3-1" target="JOWtnYizs2zbeMubpXw3-4">
                    <mxGeometry relative="1" as="geometry"/>
                </mxCell>
                <mxCell id="uU5GFD_xgaYbaaGpvH6P-18" style="edgeStyle=none;html=1;entryX=0;entryY=0.5;entryDx=0;entryDy=0;" edge="1" parent="1" source="JOWtnYizs2zbeMubpXw3-1" target="JOWtnYizs2zbeMubpXw3-5">
                    <mxGeometry relative="1" as="geometry"/>
                </mxCell>
                <mxCell id="JOWtnYizs2zbeMubpXw3-1" value="Start" style="ellipse;whiteSpace=wrap;html=1;aspect=fixed;strokeColor=#F0F0F0;fillColor=#18141D;" vertex="1" parent="1">
                    <mxGeometry x="50" y="280" width="80" height="80" as="geometry"/>
                </mxCell>
                <mxCell id="JOWtnYizs2zbeMubpXw3-4" value="Download App-Configuration" style="rounded=0;whiteSpace=wrap;html=1;strokeColor=#F0F0F0;fillColor=#18141D;" vertex="1" parent="1">
                    <mxGeometry x="210" y="400" width="120" height="60" as="geometry"/>
                </mxCell>
                <mxCell id="uU5GFD_xgaYbaaGpvH6P-20" value="" style="edgeStyle=none;html=1;" edge="1" parent="1" source="JOWtnYizs2zbeMubpXw3-5" target="uU5GFD_xgaYbaaGpvH6P-56">
                    <mxGeometry relative="1" as="geometry"/>
                </mxCell>
                <mxCell id="JOWtnYizs2zbeMubpXw3-5" value="Download SourceCode" style="rounded=0;whiteSpace=wrap;html=1;strokeColor=#F0F0F0;fillColor=#18141D;" vertex="1" parent="1">
                    <mxGeometry x="210" y="292" width="120" height="60" as="geometry"/>
                </mxCell>
                <mxCell id="uU5GFD_xgaYbaaGpvH6P-21" style="edgeStyle=none;html=1;" edge="1" parent="1" source="uU5GFD_xgaYbaaGpvH6P-19" target="NSlzloN-5gHthypJcbWo-3">
                    <mxGeometry relative="1" as="geometry"/>
                </mxCell>
                <mxCell id="uU5GFD_xgaYbaaGpvH6P-19" value="Build Image" style="rounded=0;whiteSpace=wrap;html=1;strokeColor=#F0F0F0;fillColor=#18141D;" vertex="1" parent="1">
                    <mxGeometry x="400" y="180" width="120" height="60" as="geometry"/>
                </mxCell>
                <mxCell id="uU5GFD_xgaYbaaGpvH6P-22" value="End" style="ellipse;whiteSpace=wrap;html=1;aspect=fixed;strokeColor=#F0F0F0;fillColor=#18141D;" vertex="1" parent="1">
                    <mxGeometry x="1050" y="282" width="80" height="80" as="geometry"/>
                </mxCell>
                <mxCell id="uU5GFD_xgaYbaaGpvH6P-33" value="No" style="edgeStyle=none;html=1;entryX=0.5;entryY=0;entryDx=0;entryDy=0;" edge="1" parent="1" source="uU5GFD_xgaYbaaGpvH6P-23" target="uU5GFD_xgaYbaaGpvH6P-24">
                    <mxGeometry relative="1" as="geometry"/>
                </mxCell>
                <mxCell id="uU5GFD_xgaYbaaGpvH6P-34" value="yes" style="edgeStyle=none;html=1;" edge="1" parent="1" source="uU5GFD_xgaYbaaGpvH6P-23" target="QvfzUBoDv7I-IdZFIV93-41">
                    <mxGeometry relative="1" as="geometry"/>
                </mxCell>
                <mxCell id="uU5GFD_xgaYbaaGpvH6P-23" value="Image Checks successfull?" style="rhombus;whiteSpace=wrap;html=1;strokeColor=#F0F0F0;fillColor=#18141D;" vertex="1" parent="1">
                    <mxGeometry x="750" y="60" width="80" height="80" as="geometry"/>
                </mxCell>
                <mxCell id="Tz66HC8R9WHWZxqIwpOP-3" value="" style="edgeStyle=none;html=1;" edge="1" parent="1" source="uU5GFD_xgaYbaaGpvH6P-24" target="Tz66HC8R9WHWZxqIwpOP-1">
                    <mxGeometry relative="1" as="geometry"/>
                </mxCell>
                <mxCell id="uU5GFD_xgaYbaaGpvH6P-24" value="Fail and Print Error" style="rounded=0;whiteSpace=wrap;html=1;strokeColor=#F0F0F0;fillColor=#18141D;" vertex="1" parent="1">
                    <mxGeometry x="730" y="290" width="120" height="60" as="geometry"/>
                </mxCell>
                <mxCell id="pKLks8T3AkP7jqi6kX6_-4" style="edgeStyle=none;html=1;exitX=1;exitY=0.5;exitDx=0;exitDy=0;entryX=0;entryY=0.5;entryDx=0;entryDy=0;" edge="1" parent="1" source="uU5GFD_xgaYbaaGpvH6P-36" target="NSlzloN-5gHthypJcbWo-3">
                    <mxGeometry relative="1" as="geometry"/>
                </mxCell>
                <mxCell id="uU5GFD_xgaYbaaGpvH6P-36" value="Download Image" style="rounded=0;whiteSpace=wrap;html=1;strokeColor=#F0F0F0;fillColor=#18141D;" vertex="1" parent="1">
                    <mxGeometry x="210" y="70" width="120" height="60" as="geometry"/>
                </mxCell>
                <mxCell id="QvfzUBoDv7I-IdZFIV93-51" style="edgeStyle=none;html=1;exitX=0;exitY=0.5;exitDx=0;exitDy=0;" edge="1" parent="1" source="uU5GFD_xgaYbaaGpvH6P-56" target="QvfzUBoDv7I-IdZFIV93-48">
                    <mxGeometry relative="1" as="geometry"/>
                </mxCell>
                <mxCell id="uU5GFD_xgaYbaaGpvH6P-56" value="SourceCode Security Checks" style="shape=process;whiteSpace=wrap;html=1;backgroundOutline=1;fontFamily=Helvetica;fontSize=12;fontColor=default;align=center;strokeColor=#F0F0F0;fillColor=#18141D;" vertex="1" parent="1">
                    <mxGeometry x="400" y="290" width="120" height="60" as="geometry"/>
                </mxCell>
                <mxCell id="uU5GFD_xgaYbaaGpvH6P-57" value="" style="edgeStyle=none;html=1;" edge="1" parent="1" source="uU5GFD_xgaYbaaGpvH6P-56" target="uU5GFD_xgaYbaaGpvH6P-19">
                    <mxGeometry relative="1" as="geometry">
                        <mxPoint x="280" y="302" as="sourcePoint"/>
                        <mxPoint x="280" y="280" as="targetPoint"/>
                    </mxGeometry>
                </mxCell>
                <mxCell id="QvfzUBoDv7I-IdZFIV93-42" style="edgeStyle=none;html=1;" edge="1" parent="1" source="QvfzUBoDv7I-IdZFIV93-41" target="uU5GFD_xgaYbaaGpvH6P-22">
                    <mxGeometry relative="1" as="geometry"/>
                </mxCell>
                <mxCell id="QvfzUBoDv7I-IdZFIV93-41" value="Upload Image" style="rounded=0;whiteSpace=wrap;html=1;strokeColor=#F0F0F0;fillColor=#18141D;" vertex="1" parent="1">
                    <mxGeometry x="1030" y="70" width="120" height="60" as="geometry"/>
                </mxCell>
                <mxCell id="QvfzUBoDv7I-IdZFIV93-44" value="no" style="edgeStyle=none;html=1;" edge="1" parent="1" source="QvfzUBoDv7I-IdZFIV93-43" target="uU5GFD_xgaYbaaGpvH6P-24">
                    <mxGeometry relative="1" as="geometry"/>
                </mxCell>
                <mxCell id="QvfzUBoDv7I-IdZFIV93-46" value="yes" style="edgeStyle=none;html=1;" edge="1" parent="1" source="QvfzUBoDv7I-IdZFIV93-43" target="QvfzUBoDv7I-IdZFIV93-45">
                    <mxGeometry relative="1" as="geometry"/>
                </mxCell>
                <mxCell id="QvfzUBoDv7I-IdZFIV93-43" value="Manifest checks succsessfull?" style="rhombus;whiteSpace=wrap;html=1;strokeColor=#F0F0F0;fillColor=#18141D;" vertex="1" parent="1">
                    <mxGeometry x="750" y="390" width="80" height="80" as="geometry"/>
                </mxCell>
                <mxCell id="QvfzUBoDv7I-IdZFIV93-47" style="edgeStyle=none;html=1;" edge="1" parent="1" source="QvfzUBoDv7I-IdZFIV93-45" target="uU5GFD_xgaYbaaGpvH6P-22">
                    <mxGeometry relative="1" as="geometry"/>
                </mxCell>
                <mxCell id="QvfzUBoDv7I-IdZFIV93-45" value="Upload Manifest" style="rounded=0;whiteSpace=wrap;html=1;strokeColor=#F0F0F0;fillColor=#18141D;" vertex="1" parent="1">
                    <mxGeometry x="1030" y="400" width="120" height="60" as="geometry"/>
                </mxCell>
                <mxCell id="pKLks8T3AkP7jqi6kX6_-6" style="edgeStyle=none;html=1;entryX=0.75;entryY=1;entryDx=0;entryDy=0;" edge="1" parent="1" source="QvfzUBoDv7I-IdZFIV93-48" target="NSlzloN-5gHthypJcbWo-3">
                    <mxGeometry relative="1" as="geometry"/>
                </mxCell>
                <mxCell id="QvfzUBoDv7I-IdZFIV93-48" value="Upload Source-Code" style="rounded=0;whiteSpace=wrap;html=1;strokeColor=#F0F0F0;fillColor=#18141D;" vertex="1" parent="1">
                    <mxGeometry x="585" y="290" width="100" height="60" as="geometry"/>
                </mxCell>
                <mxCell id="NSlzloN-5gHthypJcbWo-5" style="edgeStyle=none;html=1;entryX=0;entryY=0.5;entryDx=0;entryDy=0;" edge="1" parent="1" source="NSlzloN-5gHthypJcbWo-3" target="uU5GFD_xgaYbaaGpvH6P-23">
                    <mxGeometry relative="1" as="geometry"/>
                </mxCell>
                <mxCell id="NSlzloN-5gHthypJcbWo-3" value="Image Checks" style="shape=process;whiteSpace=wrap;html=1;backgroundOutline=1;strokeColor=#F0F0F0;fillColor=#18141D;" vertex="1" parent="1">
                    <mxGeometry x="400" y="70" width="120" height="60" as="geometry"/>
                </mxCell>
                <mxCell id="pKLks8T3AkP7jqi6kX6_-3" style="edgeStyle=none;html=1;" edge="1" parent="1" source="pKLks8T3AkP7jqi6kX6_-1" target="QvfzUBoDv7I-IdZFIV93-43">
                    <mxGeometry relative="1" as="geometry"/>
                </mxCell>
                <mxCell id="pKLks8T3AkP7jqi6kX6_-1" value="Manifest Checks" style="shape=process;whiteSpace=wrap;html=1;backgroundOutline=1;strokeColor=#F0F0F0;fillColor=#18141D;" vertex="1" parent="1">
                    <mxGeometry x="400" y="400" width="120" height="60" as="geometry"/>
                </mxCell>
                <mxCell id="pKLks8T3AkP7jqi6kX6_-2" value="" style="edgeStyle=none;html=1;" edge="1" parent="1" source="JOWtnYizs2zbeMubpXw3-4" target="pKLks8T3AkP7jqi6kX6_-1">
                    <mxGeometry relative="1" as="geometry"/>
                </mxCell>
                <mxCell id="Tz66HC8R9WHWZxqIwpOP-7" value="" style="edgeStyle=none;html=1;" edge="1" parent="1" source="Tz66HC8R9WHWZxqIwpOP-1" target="uU5GFD_xgaYbaaGpvH6P-22">
                    <mxGeometry relative="1" as="geometry"/>
                </mxCell>
                <mxCell id="Tz66HC8R9WHWZxqIwpOP-1" value="Resolve Error" style="verticalLabelPosition=middle;verticalAlign=middle;html=1;shape=trapezoid;perimeter=trapezoidPerimeter;whiteSpace=wrap;size=0.23;arcSize=10;flipV=1;labelPosition=center;align=center;fontFamily=Helvetica;fontSize=12;fontColor=default;strokeColor=#F0F0F0;fillColor=#A31733;" vertex="1" parent="1">
                    <mxGeometry x="890" y="292" width="120" height="60" as="geometry"/>
                </mxCell>
                <mxCell id="H_pgNcaqZFPb_o-VVuZC-1" value="Lieferung im Pull Verfahren" style="shape=process;whiteSpace=wrap;html=1;backgroundOutline=1;fillColor=#003300;" vertex="1" parent="1">
                    <mxGeometry x="30" y="20" width="120" height="60" as="geometry"/>
                </mxCell>
            </root>
        </mxGraphModel>
    </diagram>
</mxfile>